<?xml version="1.0" standalone="no"?>
<!DOCTYPE svg PUBLIC "-//W3C//DTD SVG 20010904//EN"
 "http://www.w3.org/TR/2001/REC-SVG-20010904/DTD/svg10.dtd">
<svg version="1.0" xmlns="http://www.w3.org/2000/svg"
 width="512.000000pt" height="512.000000pt" viewBox="0 0 512.000000 512.000000"
 preserveAspectRatio="xMidYMid meet">

<g transform="translate(0.000000,512.000000) scale(0.100000,-0.100000)"
fill="#FFFFFF" stroke="none">
<path d="M2205 3293 c-557 -72 -990 -405 -1279 -981 -59 -117 -117 -258 -156
-376 l-23 -70 49 -40 c27 -22 93 -83 146 -135 54 -52 99 -93 101 -90 2 2 11
40 21 84 41 178 140 443 242 646 276 552 639 872 1074 949 l105 18 -125 0
c-69 -1 -138 -3 -155 -5z"/>
<path d="M1730 2698 c0 -66 1 -68 25 -68 l26 0 -3 -132 -3 -133 -27 -3 c-27
-3 -28 -5 -28 -68 l0 -64 94 0 c52 0 101 3 110 6 14 5 16 32 16 200 l0 194 35
0 36 0 -1 -197 -2 -198 81 -3 81 -3 0 261 c0 208 -3 262 -13 266 -8 3 -107 6
-220 7 l-207 2 0 -67z"/>
<path d="M2214 2761 c-2 -2 -4 -71 -4 -153 l0 -148 85 0 85 0 0 149 0 149 -81
4 c-44 2 -83 1 -85 -1z"/>
<path d="M2414 2761 c-2 -2 -4 -33 -4 -68 l0 -63 30 0 c17 0 30 -3 30 -6 0
-12 -61 -359 -66 -376 -5 -16 3 -18 80 -18 84 0 84 0 90 28 6 26 56 358 56
367 0 3 11 5 25 5 l25 0 0 -135 0 -135 -30 0 -30 0 0 -65 0 -65 103 0 c67 0
107 4 115 12 18 18 17 491 -1 506 -12 11 -413 22 -423 13z"/>
<path d="M2879 2763 c0 -2 0 -31 -1 -65 l0 -63 91 -3 91 -3 0 -199 0 -200 85
0 85 0 0 200 0 200 25 0 c25 0 26 1 23 65 l-3 66 -198 2 c-108 1 -197 1 -198
0z"/>
<path d="M3320 2698 l0 -68 115 0 115 0 0 -145 c0 -138 -1 -145 -20 -145 -18
0 -20 -7 -20 -55 l0 -55 85 0 c131 0 126 -13 123 283 l-3 242 -198 5 -197 5 0
-67z"/>
<path d="M3753 2754 c-2 -6 19 -50 47 -97 l50 -86 -45 -42 -45 -42 0 -117 c0
-89 3 -120 14 -129 9 -8 45 -11 98 -9 l83 3 3 53 c3 47 1 52 -17 52 -19 0 -21
6 -21 53 l0 52 18 -30 c10 -16 37 -65 61 -107 l42 -78 84 0 c46 0 86 4 90 10
3 5 -17 46 -45 91 l-51 82 40 41 41 42 0 132 0 132 -85 0 c-47 0 -88 0 -92 0
-5 0 -9 -22 -11 -50 -3 -45 -1 -50 17 -50 19 0 21 -6 21 -62 l0 -63 -46 80
c-91 158 -78 147 -168 148 -50 1 -80 -2 -83 -9z"/>
<path d="M4250 2698 l0 -68 105 0 105 0 2 -197 3 -198 83 -3 82 -3 0 261 c0
209 -3 262 -13 266 -8 3 -93 6 -190 7 l-177 2 0 -67z"/>
<path d="M4700 2180 l0 -580 210 0 210 0 0 580 0 580 -210 0 -210 0 0 -580z
m350 510 c0 -19 -7 -20 -120 -20 l-120 0 0 -61 c0 -52 -2 -60 -17 -57 -15 3
-19 16 -21 66 -2 39 2 69 9 78 9 11 41 14 140 14 122 0 129 -1 129 -20z m0
-120 c0 -19 -7 -20 -100 -20 -93 0 -100 1 -100 20 0 19 7 20 100 20 93 0 100
-1 100 -20z m-2 -108 c3 -47 1 -53 -15 -50 -12 2 -18 13 -18 33 l-1 30 -102 3
-102 3 0 -34 c0 -38 -15 -33 158 -58 69 -10 82 -14 82 -30 0 -23 8 -22 -110
-4 -120 19 -130 18 -130 -1 0 -9 -7 -14 -17 -12 -15 3 -19 16 -21 77 -2 46 1
78 9 87 9 12 38 14 138 12 l126 -3 3 -53z m2 -223 c0 -62 -2 -70 -17 -67 -14
3 -18 14 -18 51 l0 47 -102 0 -103 0 0 -50 c0 -43 -3 -50 -20 -50 -18 0 -20 7
-20 63 0 35 3 67 7 70 3 4 66 7 140 7 l133 0 0 -71z m-2 -151 c2 -38 0 -48
-12 -48 -11 0 -16 10 -16 30 l0 30 -104 0 -105 0 -3 -52 -3 -53 -37 -3 c-33
-3 -38 0 -38 17 0 14 6 21 20 21 17 0 20 7 20 48 0 27 3 52 7 56 4 3 66 5 137
4 l131 -3 3 -47z m-10 -120 c18 -18 16 -98 -3 -98 -10 0 -15 11 -15 35 l0 35
-104 0 -105 0 -3 -52 -3 -53 -37 -3 c-33 -3 -38 0 -38 17 0 14 6 21 20 21 17
0 20 7 20 49 0 30 5 51 13 54 27 11 243 7 255 -5z m12 -178 c0 -19 -7 -20
-120 -20 l-120 0 0 -61 c0 -52 -2 -60 -17 -57 -15 3 -19 16 -21 67 -2 35 -1
70 2 77 4 11 36 14 141 14 128 0 135 -1 135 -20z m0 -120 c0 -20 -5 -21 -97
-18 -84 3 -98 6 -101 21 -3 15 7 17 97 17 95 0 101 -1 101 -20z"/>
<path d="M3320 2333 l0 -233 80 0 80 0 0 233 0 232 -80 0 -80 0 0 -232z"/>
<path d="M4250 2398 l0 -168 80 0 80 0 0 168 0 167 -80 0 -80 0 0 -167z"/>
<path d="M142 2225 c-93 -26 -162 -72 -79 -53 48 11 135 4 222 -18 64 -17 225
-90 225 -102 0 -4 -7 -16 -15 -26 -8 -11 -15 -29 -15 -39 0 -11 -23 -41 -52
-68 l-51 -47 63 30 c88 43 169 48 232 16 l46 -24 40 108 c46 126 56 110 -98
161 -204 68 -409 93 -518 62z"/>
<path d="M3940 2071 c0 -43 5 -73 12 -77 6 -4 48 -8 92 -8 l81 -1 3 -157 3
-158 -51 0 -50 0 0 -35 0 -35 88 0 c85 0 89 1 100 25 13 27 17 370 6 413 -6
21 -11 22 -95 22 l-89 0 0 40 0 40 -50 0 -50 0 0 -69z"/>
<path d="M1720 1830 l0 -230 50 0 50 0 0 230 0 230 -50 0 -50 0 0 -230z"/>
<path d="M1866 2044 c-11 -30 -7 -219 6 -232 7 -7 43 -12 90 -12 l78 0 0 40 0
40 -40 0 -40 0 0 50 0 50 60 0 60 0 0 -155 0 -155 -110 0 -110 0 0 -35 0 -36
158 3 157 3 0 225 0 225 -151 3 c-132 2 -152 0 -158 -14z"/>
<path d="M2230 1924 l0 -135 48 3 47 3 3 133 3 132 -51 0 -50 0 0 -136z"/>
<path d="M2550 2023 l0 -38 80 3 80 4 0 -161 0 -161 -80 0 -80 0 0 -35 0 -35
150 0 150 0 0 35 c0 28 -4 35 -20 35 -19 0 -20 8 -22 193 l-3 192 -127 3 -128
3 0 -38z"/>
<path d="M2870 1925 l0 -135 50 0 50 0 0 135 0 135 -50 0 -50 0 0 -135z"/>
<path d="M3022 2024 l3 -37 78 2 77 2 0 -150 c0 -83 1 -154 3 -158 1 -5 -35
-9 -80 -11 l-83 -3 0 -34 0 -35 150 0 150 0 0 34 c0 25 -5 35 -20 39 -18 5
-20 15 -22 194 l-3 188 -128 3 -128 3 3 -37z"/>
<path d="M3353 2053 c2 -4 23 -41 47 -82 l42 -73 -36 -37 -36 -37 0 -112 0
-112 75 0 75 0 0 35 c0 32 -2 35 -30 35 l-30 0 0 79 c0 44 4 82 8 85 5 3 40
-49 78 -114 l69 -120 54 0 c61 0 61 -5 3 95 l-41 70 40 41 40 41 -3 104 -3
104 -77 3 -78 3 0 -36 c0 -32 2 -35 30 -35 l30 0 0 -87 c0 -63 -3 -84 -11 -76
-6 6 -39 60 -73 120 l-62 108 -58 3 c-32 2 -56 -1 -53 -5z"/>
<path d="M3752 2024 l3 -36 73 -2 72 -1 0 38 0 37 -76 0 -75 0 3 -36z"/>
<path d="M4282 2023 c2 -30 7 -37 21 -35 16 3 17 -10 17 -158 l0 -160 -30 0
c-28 0 -30 -3 -30 -35 l0 -36 78 3 77 3 3 193 2 192 55 0 55 0 0 -195 0 -195
50 0 50 0 -2 228 -3 227 -173 3 -173 2 3 -37z"/>
<path d="M2370 1830 l0 -40 80 0 80 0 0 40 0 40 -80 0 -80 0 0 -40z"/>
</g>
</svg>
