<?xml version="1.0" standalone="no"?>
<svg version="1.0" xmlns="http://www.w3.org/2000/svg"
 width="496.000000pt" height="258.000000pt" viewBox="0 0 496.000000 258.000000"
 preserveAspectRatio="xMidYMid meet">

<g transform="translate(0.000000,258.000000) scale(0.100000,-0.100000)"
fill="#FFFFFF" stroke="none">
<path d="M2014 2443 c3 -10 11 -40 17 -68 7 -27 17 -53 23 -57 6 -4 93 -35
194 -69 l182 -62 0 -299 0 -298 -40 0 c-46 0 -32 -36 -116 310 -31 129 -57
236 -58 237 -6 7 -136 49 -136 44 0 -7 146 -618 161 -673 l10 -37 87 -3 87 -3
3 -52 3 -53 62 0 62 0 0 52 0 53 91 3 90 3 85 354 c71 293 83 355 70 354 -31
-1 -115 -35 -122 -50 -5 -8 -36 -131 -71 -274 l-63 -260 -40 0 -40 0 0 295 0
295 189 66 c104 36 192 72 196 80 10 18 32 121 27 125 -2 2 -93 -27 -202 -66
-109 -38 -202 -67 -207 -64 -5 4 -8 34 -7 68 l3 61 -62 3 -62 3 0 -71 c0 -38
-2 -70 -4 -70 -2 0 -95 32 -206 70 -111 39 -204 70 -207 70 -2 0 -2 -8 1 -17z"/>
<path d="M1853 1222 c-48 -4 -42 11 -73 -187 -28 -180 -28 -181 -44 -164 -7 8
-32 44 -54 81 -42 67 -42 68 -42 168 l0 100 -51 0 -50 0 7 -93 6 -93 -53 -87
c-29 -48 -56 -87 -59 -87 -4 0 -22 81 -40 180 l-34 180 -51 0 -51 0 55 -245
56 -246 45 3 44 3 61 98 c33 53 63 97 67 97 3 0 35 -45 70 -100 l63 -100 43 0
c23 0 42 2 42 4 0 2 23 111 51 241 28 131 47 240 42 244 -4 3 -27 5 -50 3z"/>
<path d="M3103 1222 l-23 -3 0 -245 0 -244 45 0 45 0 0 244 0 244 -22 4 c-13
2 -33 2 -45 0z"/>
<path d="M1964 1128 c3 -50 6 -160 6 -245 l0 -153 45 0 45 0 0 245 0 245 -52
0 -51 0 7 -92z"/>
<path d="M2100 1175 l0 -45 73 7 c39 3 79 7 87 7 13 1 15 -27 13 -206 l-2
-208 49 0 50 0 0 210 0 211 33 -5 c17 -3 56 -8 85 -11 l52 -6 0 46 0 45 -220
0 -220 0 0 -45z"/>
<path d="M2584 1183 c3 -21 6 -131 6 -245 l0 -208 45 0 45 0 0 100 0 100 120
0 120 0 0 -100 0 -100 45 0 45 0 0 245 0 245 -45 0 -45 0 0 -100 c0 -117 11
-108 -143 -112 l-97 -3 0 108 0 107 -51 0 -52 0 7 -37z"/>
<path d="M3210 1216 c0 -3 22 -32 50 -65 l50 -60 -35 -172 c-19 -95 -35 -176
-35 -181 0 -4 20 -8 44 -8 52 0 48 -9 71 155 10 66 21 124 25 128 4 4 64 -59
133 -140 107 -126 131 -149 157 -151 18 -1 32 3 34 10 3 7 7 120 10 251 l6
237 -47 0 -48 0 3 -172 c3 -171 3 -173 -16 -153 -10 11 -76 89 -146 173 l-127
152 -64 0 c-36 0 -65 -2 -65 -4z"/>
<path d="M3947 650 c-55 -14 -87 -33 -129 -77 -95 -98 -91 -275 8 -362 55 -48
119 -65 215 -59 126 9 210 85 231 209 20 117 -33 228 -129 271 -50 22 -144 31
-196 18z m162 -99 c70 -50 96 -191 48 -262 -63 -95 -211 -91 -276 7 -68 103
-39 237 59 277 8 4 42 5 75 4 45 -2 70 -9 94 -26z"/>
<path d="M210 604 l0 -45 88 3 87 3 0 -205 0 -205 45 0 45 0 3 209 2 208 85
-7 85 -7 0 46 0 46 -220 0 -220 0 0 -46z"/>
<path d="M690 400 l0 -251 170 1 c94 1 170 5 171 8 0 4 3 27 6 51 l5 43 -38
-6 c-22 -3 -64 -8 -94 -11 -30 -3 -72 -8 -92 -11 l-38 -6 0 76 0 76 120 0
c130 0 126 -2 114 59 l-6 31 -114 -7 -114 -6 0 68 0 68 48 -6 c26 -4 85 -10
131 -13 l83 -7 -5 44 c-3 24 -6 45 -6 47 -1 1 -77 2 -171 2 l-170 0 0 -250z"/>
<path d="M1100 640 c0 -5 11 -25 23 -44 l24 -34 -28 -194 c-16 -106 -29 -198
-29 -204 0 -6 20 -12 44 -12 l43 -2 6 47 c4 27 12 100 18 163 7 63 15 119 19
123 4 5 43 -39 86 -97 43 -58 81 -106 85 -106 4 0 47 54 95 120 49 65 92 119
97 120 4 0 7 -62 7 -139 0 -76 3 -159 6 -185 l7 -47 40 3 41 3 -2 60 c-1 33
-5 144 -8 248 l-7 187 -47 0 -48 0 -86 -115 c-47 -63 -88 -115 -91 -115 -3 0
-44 52 -91 115 l-86 115 -59 0 c-33 0 -59 -4 -59 -10z"/>
<path d="M1752 404 l3 -249 40 0 40 0 3 57 3 57 57 6 c149 18 242 99 242 212
0 64 -26 104 -87 134 -41 21 -66 24 -176 27 l-127 4 2 -248z m242 152 c43 -18
60 -63 46 -117 -13 -49 -51 -70 -137 -77 l-63 -5 0 107 0 106 60 0 c33 0 76
-6 94 -14z"/>
<path d="M2180 604 l0 -46 84 7 83 7 6 -49 c3 -26 3 -121 0 -211 l-6 -163 49
3 49 3 -4 209 -3 208 91 -7 91 -7 0 46 0 46 -220 0 -220 0 0 -46z"/>
<path d="M2670 604 l0 -45 85 7 85 7 -125 -207 c-69 -114 -125 -209 -125 -211
0 -3 24 -5 53 -5 l52 0 36 68 35 67 116 3 116 3 8 -68 9 -68 43 -3 c42 -3 42
-3 42 30 0 18 -11 127 -25 243 -14 116 -25 213 -25 218 0 4 -85 7 -190 7
l-190 0 0 -46z m304 -85 c3 -27 9 -71 12 -98 l5 -48 -47 -7 c-56 -7 -134 -8
-134 -1 0 16 101 204 112 207 32 11 46 -4 52 -53z"/>
<path d="M3118 605 l4 -46 82 3 81 3 0 -205 0 -205 45 0 45 0 2 130 c1 72 2
165 3 208 l0 79 85 -7 85 -7 0 46 0 46 -218 0 -217 0 3 -45z"/>
<path d="M3604 589 c3 -34 6 -147 6 -251 l0 -189 43 3 42 3 3 248 2 247 -51 0
-52 0 7 -61z"/>
<path d="M4270 637 c0 -7 20 -36 46 -64 l45 -52 -35 -180 c-20 -98 -36 -182
-36 -186 0 -6 89 0 94 7 2 1 11 61 21 133 10 72 21 136 25 143 4 9 50 -38 134
-137 119 -140 130 -151 162 -151 l34 0 0 98 c0 55 3 167 7 250 l6 152 -46 0
-47 0 -2 -172 -3 -172 -143 172 -144 172 -59 0 c-41 0 -59 -4 -59 -13z"/>
</g>
</svg>
