<?xml version="1.0" standalone="no"?>
<svg version="1.0" xmlns="http://www.w3.org/2000/svg"
 width="228.000000pt" height="437.000000pt" viewBox="0 0 228.000000 437.000000"
 preserveAspectRatio="xMidYMid meet">

<g transform="translate(0.000000,437.000000) scale(0.100000,-0.100000)"
fill="#FFFFFF" stroke="none">
<path d="M1150 4278 c0 -18 6 -24 27 -26 41 -3 86 -34 105 -72 20 -39 24 -110
7 -110 -6 0 -9 -6 -6 -14 5 -11 0 -11 -24 2 -28 16 -31 16 -70 -5 l-40 -22
-41 21 -41 22 -37 -20 -37 -20 1 72 c1 57 5 76 21 94 25 27 67 50 94 50 11 0
22 4 25 9 12 19 -68 1 -104 -23 -86 -56 -120 -134 -122 -276 -1 -73 2 -102 15
-125 9 -16 17 -38 17 -47 0 -9 4 -19 8 -22 4 -2 9 -28 10 -57 2 -51 19 -80 33
-57 4 6 12 8 18 4 19 -12 23 41 6 78 -10 20 -20 36 -24 36 -3 0 -7 23 -9 52
-2 28 -7 74 -13 101 -6 34 -6 54 2 63 8 9 6 11 -9 7 -18 -4 -19 0 -16 53 4 58
14 88 14 43 0 -14 5 -30 11 -36 8 -8 8 -13 0 -17 -15 -10 -14 -26 2 -21 16 7
31 -18 51 -87 21 -72 60 -121 90 -113 12 4 16 3 10 -2 -6 -4 -10 -26 -8 -48 4
-67 -5 -95 -29 -95 -18 0 -20 2 -7 11 12 9 12 10 -3 5 -10 -3 -24 -6 -30 -7
-7 0 -2 -4 10 -9 14 -6 21 -15 17 -24 -4 -10 3 -17 20 -22 18 -4 25 -11 22
-23 -2 -9 -7 -34 -11 -57 l-6 -40 62 -18 c34 -9 63 -15 64 -14 9 9 -10 58 -24
61 -9 3 -4 5 11 6 40 2 43 19 6 30 l-33 9 30 1 30 2 -25 14 -25 14 25 9 25 10
-29 7 -29 8 34 18 c38 19 53 16 46 -12 -4 -15 0 -19 19 -19 17 0 24 -6 24 -20
0 -11 6 -20 14 -20 8 0 17 -7 20 -16 9 -23 7 -34 -4 -34 -5 0 -10 7 -10 15 0
18 -9 19 -31 2 -26 -20 -13 -73 21 -89 20 -9 27 -18 25 -35 -3 -26 16 -31 34
-9 9 11 7 33 -8 95 -20 80 -39 112 -73 124 -25 9 -23 37 2 37 11 0 20 -7 20
-16 0 -8 5 -12 10 -9 6 3 10 25 10 49 0 45 12 94 35 136 19 36 29 107 16 115
-6 3 -11 30 -11 60 0 64 -30 148 -68 188 -25 26 -83 60 -107 63 -5 0 -18 2
-28 2 -10 1 -16 6 -12 11 3 5 1 12 -5 16 -6 3 -10 -4 -10 -17z m-51 -279 c17
-16 25 -18 36 -9 19 16 43 6 56 -24 11 -23 12 -23 30 -5 22 22 26 37 5 20 -21
-17 -33 7 -13 26 19 19 47 10 54 -18 4 -15 8 -17 14 -8 4 8 11 10 15 6 11 -10
-31 -165 -69 -257 -6 -14 -10 -30 -8 -37 2 -13 -37 -28 -47 -19 -3 4 -1 26 5
49 8 27 8 46 2 53 -7 8 -6 14 3 18 10 5 10 7 1 12 -18 8 -16 27 1 21 9 -4 16
4 20 24 3 16 12 29 20 29 7 0 21 12 31 26 14 21 15 31 6 48 -7 11 -10 14 -7 6
2 -9 -10 -29 -26 -45 l-30 -30 -24 28 -24 28 -23 -27 -24 -27 -21 21 c-12 12
-26 22 -32 22 -5 0 -14 9 -20 21 -9 16 -8 26 5 45 19 29 34 30 64 3z m58 -415
c-3 -3 -12 -4 -19 -1 -8 3 -5 6 6 6 11 1 17 -2 13 -5z m218 -134 c3 -5 1 -10
-4 -10 -6 0 -11 5 -11 10 0 6 2 10 4 10 3 0 8 -4 11 -10z"/>
<path d="M1068 3603 c6 -2 18 -2 25 0 6 3 1 5 -13 5 -14 0 -19 -2 -12 -5z"/>
<path d="M927 3585 c-21 -6 -34 -15 -30 -19 4 -5 0 -6 -10 -3 -9 4 -40 1 -67
-5 -43 -10 -48 -13 -39 -30 8 -15 14 -16 31 -7 14 8 18 8 14 0 -4 -6 -1 -9 6
-6 7 2 45 13 84 24 46 14 71 26 71 35 0 21 -16 24 -60 11z"/>
<path d="M1050 3571 c0 -17 15 -19 28 -5 11 12 9 14 -8 14 -11 0 -20 -4 -20
-9z"/>
<path d="M671 3519 c-18 -11 -31 -23 -28 -26 3 -3 25 7 49 21 24 14 36 26 28
26 -8 0 -30 -9 -49 -21z"/>
<path d="M1007 3508 c-22 -23 -22 -24 21 -33 28 -6 32 -4 32 14 0 31 -31 42
-53 19z"/>
<path d="M1416 3512 c21 -8 62 -15 89 -17 44 -3 52 -7 69 -36 21 -34 31 -119
15 -119 -5 0 -9 8 -9 17 0 9 -3 13 -7 10 -3 -4 -5 -38 -4 -77 3 -80 -14 -96
-25 -24 -3 25 -12 48 -19 51 -7 2 -19 18 -25 34 -10 24 -17 28 -34 23 -33 -10
-36 -16 -25 -64 6 -24 8 -52 6 -61 -3 -10 10 -30 31 -50 33 -31 34 -32 27 -9
-6 19 -5 22 5 14 7 -7 9 -21 5 -34 -6 -18 -12 -21 -36 -16 -34 7 -35 3 -11
-32 25 -35 43 -89 36 -106 -3 -8 -1 -17 5 -20 15 -10 22 26 11 64 -16 57 -13
71 13 65 13 -4 30 -7 39 -9 18 -2 71 -57 76 -78 6 -22 22 -34 22 -15 0 33 16
16 35 -35 11 -29 18 -56 17 -60 -1 -4 6 -4 16 -1 15 6 15 5 2 -11 -16 -20 -15
-81 1 -134 6 -18 8 -41 4 -50 -4 -9 -8 -48 -9 -87 -1 -38 -6 -82 -10 -98 -7
-23 -6 -26 9 -21 12 5 24 -1 36 -17 13 -17 19 -20 19 -9 0 9 -5 21 -11 27 -17
17 16 23 40 7 14 -10 21 -26 21 -49 0 -19 4 -37 10 -40 6 -4 4 -18 -6 -37
l-16 -31 -19 24 c-18 24 -23 40 -20 69 1 8 -10 0 -24 -17 -23 -29 -28 -31 -41
-19 -18 19 -18 30 1 46 12 10 13 15 3 21 -8 5 -16 -4 -25 -29 -10 -30 -10 -39
1 -52 15 -16 11 -76 -6 -97 -7 -9 -7 -13 0 -13 6 0 28 23 51 51 39 50 40 50
52 27 7 -13 12 -35 10 -50 -1 -16 2 -28 8 -28 6 0 11 7 11 15 0 9 11 42 24 74
14 32 23 67 20 78 -3 12 -1 24 4 27 6 4 8 -3 4 -16 -5 -21 -4 -22 11 -9 10 8
17 28 17 47 0 41 -20 53 -96 61 -34 4 -51 10 -47 16 8 13 8 151 0 165 -4 5 -2
22 3 38 8 26 8 25 9 -18 1 -26 6 -50 11 -53 7 -4 7 -13 0 -26 -9 -16 -8 -58 1
-79 1 -3 5 18 9 45 12 72 12 180 0 209 -8 21 -6 27 9 35 10 6 20 9 22 8 2 -1
-1 3 -8 9 -9 8 -10 13 -1 22 9 9 8 12 -4 12 -16 0 -98 116 -98 139 0 7 -12 27
-26 44 -15 18 -23 38 -21 49 5 18 4 18 -17 5 l-22 -15 4 83 c3 60 0 97 -12
131 -20 58 -20 59 -1 44 8 -7 15 -20 15 -29 1 -9 21 -31 46 -49 25 -19 49 -43
53 -54 6 -17 9 -18 13 -6 13 32 -99 159 -176 200 -11 6 -61 12 -110 13 -88 2
-89 1 -50 -13z m180 -237 c-2 -20 -6 -38 -9 -41 -3 -3 -4 9 -3 28 4 42 5 48
10 48 2 0 3 -16 2 -35z m177 -385 c3 -11 2 -22 -3 -25 -4 -3 -10 6 -12 20 -6
30 7 34 15 5z m107 -356 c0 -8 -4 -12 -10 -9 -5 3 -10 10 -10 16 0 5 5 9 10 9
6 0 10 -7 10 -16z"/>
<path d="M600 3469 c0 -5 5 -7 10 -4 6 3 10 8 10 11 0 2 -4 4 -10 4 -5 0 -10
-5 -10 -11z"/>
<path d="M807 3459 c4 -13 8 -18 11 -10 2 7 -1 18 -6 23 -8 8 -9 4 -5 -13z"/>
<path d="M1110 3471 c0 -10 24 -21 48 -21 11 0 6 6 -12 15 -33 18 -36 18 -36
6z"/>
<path d="M860 3458 c14 -6 39 -14 55 -19 17 -4 60 -17 97 -27 46 -13 70 -16
77 -9 7 7 19 7 36 -1 14 -7 34 -12 43 -12 9 0 -3 9 -27 20 -23 11 -47 17 -52
14 -5 -3 -9 0 -9 6 0 6 -5 8 -11 4 -7 -4 -6 2 2 17 11 21 10 22 -3 12 -10 -9
-24 -10 -49 -3 -18 6 -35 10 -36 10 -1 0 0 -6 3 -14 5 -13 -2 -13 -48 0 -29 7
-64 14 -78 13 l-25 0 25 -11z"/>
<path d="M1290 3456 c0 -9 5 -16 10 -16 6 0 10 4 10 9 0 6 -4 13 -10 16 -5 3
-10 -1 -10 -9z"/>
<path d="M550 3425 c-13 -14 -21 -25 -17 -25 3 0 17 11 31 25 14 14 22 25 17
25 -4 0 -18 -11 -31 -25z"/>
<path d="M755 3414 c-22 -6 -63 -21 -90 -32 -44 -17 -54 -18 -75 -6 -50 27
-90 9 -90 -42 0 -10 -29 -48 -65 -85 -36 -37 -65 -72 -65 -79 0 -7 -6 -10 -13
-7 -14 5 -38 -13 -82 -64 l-30 -34 35 31 c19 17 40 30 46 27 6 -2 59 46 117
107 58 60 112 110 119 110 20 0 37 -20 31 -36 -4 -10 0 -12 13 -7 12 4 15 3
10 -5 -4 -7 -12 -12 -17 -12 -6 0 -19 -10 -29 -22 -10 -13 -22 -19 -26 -15 -5
4 -2 12 6 17 8 5 11 12 7 16 -10 10 -46 -30 -72 -78 -11 -21 -23 -38 -28 -38
-4 0 -5 -4 -2 -10 6 -9 -63 -57 -76 -53 -3 1 -6 -7 -5 -18 1 -19 56 -57 56
-38 0 6 5 7 10 4 6 -4 50 32 98 79 52 52 92 84 101 81 7 -3 20 0 27 6 8 6 14
8 14 3 0 -4 -49 -56 -109 -115 l-109 -108 72 -63 c254 -227 262 -234 226 -188
-19 24 -36 48 -36 52 -1 4 -2 12 -3 17 0 5 -42 46 -92 89 -60 52 -97 78 -107
74 -11 -4 -13 -1 -7 7 4 8 2 16 -5 21 -8 5 -7 9 5 13 11 5 14 3 9 -6 -4 -6 12
6 37 27 24 22 49 49 54 61 6 11 20 31 32 44 16 18 25 21 40 13 15 -8 68 -10
68 -2 0 1 15 3 33 5 18 1 31 1 29 -2 -6 -5 28 -113 53 -170 11 -25 19 -48 17
-53 -1 -4 3 -8 8 -9 12 -1 12 6 1 77 -6 38 -13 52 -22 48 -18 -7 -30 14 -14
24 6 4 11 18 10 31 -4 45 -1 52 21 46 20 -5 20 -5 3 14 -13 15 -15 22 -6 31
16 16 49 -15 54 -53 4 -24 1 -29 -15 -29 -20 0 -20 0 -1 -21 15 -16 19 -36 19
-95 0 -67 2 -74 20 -75 11 0 1 -6 -22 -12 l-43 -12 20 -33 c25 -40 25 -38 -2
-47 l-23 -8 25 -4 c13 -3 26 0 28 6 4 13 32 15 32 2 0 -5 -10 -11 -21 -14 -16
-4 -20 -11 -16 -26 3 -14 0 -21 -8 -21 -27 0 -65 -24 -65 -40 0 -17 -12 -20
-77 -22 -13 0 -69 38 -142 96 -66 53 -137 107 -158 121 -87 56 -86 55 -66 71
16 13 15 13 -9 3 -24 -10 -30 -8 -62 25 -37 36 -56 45 -56 26 0 -17 -18 -11
-23 8 -2 9 6 28 17 42 19 23 18 22 -10 -3 -17 -15 -33 -25 -36 -22 -3 3 -3 -5
-1 -18 3 -14 22 -37 44 -53 44 -33 58 -65 51 -113 -3 -23 -1 -32 6 -27 16 10
130 -76 124 -93 -3 -10 0 -12 12 -8 11 4 16 1 16 -9 0 -10 6 -14 15 -10 9 3
15 0 15 -9 0 -8 8 -15 18 -15 21 0 74 -34 66 -43 -10 -10 25 -39 40 -34 8 3
22 -1 33 -9 17 -14 16 -14 -7 -4 -24 11 -24 10 -6 -4 11 -9 26 -16 33 -16 7 0
16 -14 20 -31 3 -17 9 -26 13 -19 12 19 113 -90 132 -142 5 -14 19 -29 31 -32
29 -7 54 -61 37 -81 -9 -11 -17 -11 -35 -3 -32 14 -61 4 -43 -16 7 -7 21 -12
31 -10 9 1 17 -1 17 -6 0 -5 -10 -10 -22 -12 -16 -2 -22 -9 -20 -22 2 -12 -1
-16 -10 -11 -10 6 -11 5 0 -6 21 -22 13 -33 -9 -13 -21 19 -22 19 -16 -1 3
-11 9 -32 13 -47 3 -16 10 -26 14 -23 5 3 13 -2 18 -12 9 -14 13 -15 26 -4 14
12 16 8 16 -35 0 -31 -7 -59 -19 -78 -19 -28 -21 -89 -7 -161 2 -11 -1 -26 -6
-32 -16 -20 -6 -292 11 -302 11 -7 11 -9 0 -14 -10 -4 -10 -6 -1 -6 6 -1 12
-13 13 -28 0 -27 17 -78 18 -59 1 12 40 -24 54 -49 9 -18 9 -19 -6 -6 -10 7
-17 10 -17 6 0 -5 -10 0 -22 11 l-21 19 21 -30 c54 -75 48 -201 -13 -273 -40
-46 -58 -82 -79 -151 -11 -38 -13 -58 -6 -67 8 -8 7 -13 -1 -16 -6 -2 -15 -41
-20 -90 -12 -117 -12 -134 -3 -197 5 -40 4 -52 -4 -47 -17 10 -16 -96 1 -113
10 -11 9 -13 -1 -7 -9 5 -12 -1 -10 -21 1 -16 -1 -34 -6 -41 -4 -7 -3 -12 2
-12 11 0 3 -58 -9 -66 -5 -3 -9 6 -9 20 0 20 -4 24 -17 19 -11 -4 -12 -8 -5
-11 7 -2 12 -12 12 -23 0 -18 3 -20 30 -23 6 -1 16 10 23 23 7 14 18 27 26 29
10 3 7 -6 -7 -26 -33 -45 -27 -47 23 -7 24 20 52 35 62 33 14 -2 10 -8 -19
-26 -37 -23 -78 -78 -78 -103 1 -8 8 -1 16 15 21 38 62 73 102 87 25 8 32 15
27 28 -4 9 -9 25 -12 36 -4 20 -4 20 14 -1 10 -11 29 -34 43 -51 14 -17 36
-34 50 -38 l25 -6 -24 21 c-58 50 -71 168 -46 400 9 80 18 170 21 200 8 90 26
180 36 180 5 0 6 -5 3 -11 -5 -7 -2 -7 11 0 11 6 31 15 46 21 46 16 87 101 56
113 -8 4 -7 6 3 6 11 1 18 12 21 31 5 32 -7 42 -15 13 -3 -10 -5 -4 -6 13 0
16 -8 39 -16 50 -14 18 -14 18 -8 -3 3 -14 1 -23 -6 -23 -6 0 -11 -9 -11 -19
0 -11 -5 -23 -11 -27 -9 -5 -10 6 -7 39 3 25 1 50 -4 55 -5 5 -10 106 -12 223
-1 118 -10 293 -19 389 -17 170 -20 340 -7 340 4 0 15 -9 25 -20 10 -11 21
-17 26 -15 4 3 11 0 15 -6 4 -8 3 -9 -5 -5 -9 6 -10 0 -5 -21 4 -15 10 -33 15
-38 4 -6 4 -17 0 -24 -5 -7 -6 -74 -4 -149 5 -123 4 -404 0 -507 -1 -22 3 -41
8 -43 6 -1 12 53 15 142 3 80 9 148 13 152 4 4 7 0 7 -10 0 -9 8 -29 18 -43
14 -22 17 -46 15 -123 -3 -120 -18 -184 -45 -177 -11 3 -18 0 -18 -10 0 -8 8
-17 19 -20 14 -3 22 -21 31 -64 14 -67 10 -127 -13 -182 -9 -20 -17 -41 -18
-45 -1 -4 -8 -12 -16 -17 -14 -11 -43 -110 -43 -149 0 -32 27 0 35 40 3 20 8
34 11 32 9 -9 -20 -107 -33 -112 -7 -3 -13 0 -13 6 0 6 -3 9 -6 6 -3 -3 -7
-77 -10 -164 -5 -157 -27 -330 -44 -348 -9 -9 16 -35 34 -36 6 0 2 6 -9 13
-12 10 -14 16 -7 21 7 4 16 4 22 1 5 -3 10 -1 10 5 0 6 5 8 10 5 6 -4 10 -12
9 -18 -5 -40 0 -45 39 -36 29 6 40 5 49 -7 6 -8 24 -19 40 -24 26 -8 24 -8
-17 -10 -35 -1 -40 -3 -25 -10 18 -8 18 -9 -5 -10 -25 -1 -25 -1 -2 -10 12 -5
22 -13 22 -18 0 -5 15 -13 33 -19 26 -8 11 -10 -73 -10 -106 0 -183 -7 -200
-18 -6 -4 -10 -13 -10 -22 0 -14 3 -14 20 2 13 12 20 14 20 5 0 -10 3 -10 15
0 10 9 15 9 15 1 0 -11 -13 -15 -37 -12 -7 1 -13 -2 -13 -6 0 -4 -27 -8 -60
-8 -46 0 -59 3 -55 13 3 8 5 17 5 22 0 4 7 11 16 14 12 5 14 1 10 -17 -3 -12
-3 -16 0 -9 3 6 16 12 28 12 12 0 30 6 41 14 11 7 43 19 72 26 44 11 50 16 41
28 -10 11 -27 13 -72 8 -59 -6 -150 -41 -142 -55 2 -3 -2 -14 -9 -25 -13 -17
-17 -17 -72 -3 -57 14 -83 13 -66 -4 5 -5 44 -18 87 -29 93 -23 313 -29 334
-8 20 20 13 38 -15 39 -24 0 -25 1 -8 8 11 5 34 7 50 5 316 -35 422 -31 413
14 -3 13 -12 16 -37 14 -20 -2 -38 2 -43 10 -8 10 -11 10 -15 0 -2 -6 -10 -9
-16 -5 -7 4 -16 8 -21 8 -20 0 -16 26 6 34 34 14 -14 17 -70 5 -15 -3 -21 -1
-17 6 3 5 21 10 38 10 23 0 28 3 17 9 -8 6 -17 8 -21 5 -4 -2 -11 1 -15 7 -4
7 -9 7 -13 1 -9 -15 -51 -25 -51 -12 0 6 7 13 16 17 12 4 4 17 -37 59 l-53 54
37 152 c40 167 67 313 67 362 0 47 11 80 21 65 11 -19 17 -10 23 37 2 23 16
58 30 79 25 36 36 82 17 70 -5 -3 -12 -1 -15 4 -3 5 3 11 14 14 11 3 20 11 20
17 0 7 -7 10 -16 6 -11 -4 -15 0 -14 17 1 12 -1 33 -5 45 -7 20 -12 23 -40 18
-24 -5 -34 -2 -39 9 -8 21 14 54 31 48 7 -3 13 0 13 6 0 6 9 11 21 11 11 0 17
4 14 10 -3 5 19 110 49 232 42 172 55 241 55 302 0 43 4 83 9 90 5 6 13 38 16
71 4 33 12 75 17 92 9 28 14 32 35 27 16 -4 24 -2 25 7 1 8 2 19 3 26 0 6 15
22 31 34 47 37 58 49 45 49 -7 0 -10 6 -7 14 4 11 -4 9 -28 -6 -33 -19 -36
-19 -52 -3 -13 13 -18 15 -21 5 -3 -7 3 -19 12 -25 19 -14 12 -45 -11 -45 -8
0 -11 5 -8 10 3 6 -1 10 -9 10 -9 0 -16 7 -16 15 0 18 -21 20 -38 3 -15 -15
-16 -65 -1 -70 9 -3 8 -23 -1 -77 -7 -40 -13 -106 -13 -147 -1 -40 -5 -68 -9
-61 -4 7 -8 -13 -8 -43 0 -55 -41 -256 -58 -287 -9 -14 -10 -14 -16 5 -4 12
-4 27 -1 32 6 10 24 183 45 435 5 61 14 127 20 147 10 35 17 277 9 325 -3 22
-3 22 -24 3 -35 -33 -39 -23 -7 14 30 34 30 37 30 134 -1 54 2 104 6 111 4 7
4 40 0 74 -7 54 -9 58 -15 32 -3 -16 -7 -39 -8 -50 -1 -16 1 -17 9 -5 7 11 10
7 10 -17 0 -18 -4 -33 -10 -33 -5 0 -8 6 -6 13 1 6 1 9 -1 5 -3 -5 -11 -8 -19
-8 -8 0 -39 -14 -70 -31 -45 -26 -59 -30 -77 -21 l-22 11 22 0 c12 1 24 5 27
9 2 4 -10 6 -29 4 -18 -2 -42 1 -52 7 -14 9 -10 10 22 6 51 -7 101 17 132 64
32 47 32 135 1 181 -48 70 -119 96 -179 66 -40 -20 -45 -20 -29 -1 11 13 7 15
-22 15 -30 0 -40 -6 -63 -40 -26 -38 -45 -51 -45 -31 0 6 18 31 40 56 22 25
40 48 40 51 0 3 -13 10 -30 15 -16 6 -30 15 -30 20 0 14 37 29 75 29 22 0 34
4 30 10 -4 6 -23 8 -43 5 -25 -3 -31 -2 -17 3 15 7 8 10 -33 15 -103 12 -132
26 -169 85 -19 29 -42 55 -51 58 -9 3 -29 12 -45 20 -15 8 -32 12 -37 9 -6 -3
-13 1 -16 9 -3 9 -12 16 -19 16 -7 0 -15 4 -17 8 -1 5 -21 3 -43 -4z m88 -81
c-8 -52 -13 -54 -13 -5 0 23 4 42 9 42 6 0 7 -17 4 -37z m-37 -21 c-11 -10
-15 4 -8 28 l7 25 3 -23 c2 -13 1 -26 -2 -30z m-462 -167 c-4 -8 -11 -15 -16
-15 -6 0 -5 6 2 15 7 8 14 15 16 15 2 0 1 -7 -2 -15z m996 -84 c0 -5 -8 -12
-17 -14 -12 -3 -9 -5 8 -6 14 0 33 -7 42 -13 15 -11 11 -13 -25 -13 -24 1 -48
-3 -55 -8 -7 -5 -17 -6 -23 -2 -12 7 -40 -53 -40 -87 0 -41 35 -92 71 -104 22
-8 35 -8 38 -2 2 6 6 5 11 -2 6 -9 13 -9 29 -1 12 7 25 10 30 7 16 -10 42 32
51 81 7 43 8 44 9 13 1 -43 -28 -101 -60 -117 -34 -18 -95 -16 -125 4 -62 40
-83 152 -41 214 29 44 97 78 97 50z m64 -22 c14 -11 31 -30 37 -42 8 -17 5
-16 -13 5 -12 15 -36 34 -53 43 -16 8 -23 15 -14 15 9 0 28 -9 43 -21z m-16
-75 c29 -33 28 -65 -4 -103 -30 -36 -53 -39 -85 -10 l-24 21 25 -16 c35 -23
44 -20 74 23 24 34 25 41 14 65 -10 23 -17 27 -44 24 -30 -4 -32 -1 -25 30 3
10 49 -13 69 -34z m-267 8 c-5 -10 -17 -25 -26 -32 -13 -11 -15 -10 -9 6 9 25
24 44 36 44 5 0 5 -8 -1 -18z m-427 -161 c5 -12 4 -12 -11 0 -37 27 -103 93
-103 103 0 11 105 -83 114 -103z m666 94 c11 -13 10 -14 -4 -9 -9 3 -16 10
-16 15 0 13 6 11 20 -6z m-135 -95 c10 -11 16 -20 13 -20 -3 0 -13 9 -23 20
-10 11 -16 20 -13 20 3 0 13 -9 23 -20z m273 -157 c-1 -62 -2 -64 -7 -23 -3
25 -4 55 -2 68 7 42 11 22 9 -45z m-591 25 c-3 -7 -5 -2 -5 12 0 14 2 19 5 13
2 -7 2 -19 0 -25z m88 -28 c13 0 31 -3 41 -7 12 -4 15 -3 10 5 -4 7 -2 12 3
12 6 0 11 -4 11 -10 0 -5 3 -9 8 -9 4 1 16 1 27 0 14 -1 16 -4 8 -12 -7 -7
-20 -9 -30 -5 -10 4 -48 9 -85 11 -49 2 -70 0 -79 -11 -16 -19 -53 -19 -45 1
3 9 -5 20 -22 29 -30 17 -29 18 10 20 15 1 25 -1 22 -5 -2 -4 6 -9 17 -12 24
-6 68 11 70 27 1 6 4 1 6 -11 3 -16 11 -23 28 -23z m175 -61 c0 -16 -15 -9
-34 17 l-19 26 27 -17 c14 -10 26 -21 26 -26z m-270 -5 c28 -15 57 -23 68 -20
12 4 26 -2 42 -19 l23 -25 -23 0 c-12 0 -47 14 -77 31 -56 32 -76 33 -52 2 8
-10 -2 -4 -22 12 -34 28 -41 45 -18 45 5 0 32 -12 59 -26z m-40 -55 c42 -50
47 -68 7 -26 -66 70 -81 88 -65 82 9 -4 35 -29 58 -56z m-26 -26 c31 -37 53
-69 51 -72 -3 -2 -6 -2 -8 0 -2 2 -29 34 -61 72 -32 37 -54 67 -48 67 6 0 35
-30 66 -67z m457 -86 c20 -15 44 -27 55 -27 14 0 16 2 6 9 -8 5 -12 21 -10 37
3 25 7 29 38 31 21 0 26 -1 11 -4 l-23 -5 22 -15 c12 -8 19 -21 16 -29 -9 -23
4 -17 68 32 61 46 61 46 -18 -30 -44 -42 -76 -79 -72 -83 3 -4 40 26 81 67 41
41 75 71 75 67 0 -4 -33 -43 -74 -86 -84 -90 -116 -154 -40 -80 25 24 61 64
80 88 18 24 34 40 34 35 0 -17 -39 -73 -57 -82 -10 -6 -34 -32 -53 -58 -18
-26 -29 -44 -23 -41 12 7 73 -23 73 -35 0 -5 -7 -8 -15 -8 -8 0 -26 -17 -39
-37 -17 -25 -27 -32 -30 -22 -2 8 -7 21 -9 29 -3 8 -6 -9 -6 -38 -1 -45 -4
-52 -18 -50 -10 2 -17 -3 -15 -10 3 -17 -27 -27 -41 -13 -8 8 -7 11 6 11 22 0
22 30 -2 97 -12 36 -15 55 -7 63 7 7 -6 26 -42 63 -41 41 -59 53 -88 55 -30 2
-35 0 -25 -11 6 -8 8 -17 4 -20 -10 -10 -46 -8 -63 4 -12 8 -7 9 18 6 17 -2
32 0 32 5 0 4 -6 8 -12 8 -10 0 -10 2 0 8 7 5 10 16 6 26 -6 16 -3 17 17 11
21 -7 21 -6 -6 18 -17 15 -25 27 -19 27 12 0 62 -41 124 -101 20 -20 49 -44
63 -54 23 -15 27 -15 27 -2 0 21 -129 143 -147 139 -8 -2 -17 6 -20 18 -3 11
-10 19 -16 17 -6 -2 -18 3 -26 10 -9 8 -27 23 -41 33 l-25 19 32 -9 c18 -5 45
-17 60 -27 16 -11 41 -24 56 -31 15 -7 26 -16 22 -21 -6 -11 101 -101 118
-100 7 0 6 3 -2 6 -9 4 -10 8 -2 12 11 7 -12 27 -158 129 -42 30 -83 60 -91
69 -19 18 142 -82 191 -120z m46 57 c-3 -3 -12 -4 -19 -1 -8 3 -5 6 6 6 11 1
17 -2 13 -5z m-436 -21 c13 -16 12 -17 -3 -4 -10 7 -18 15 -18 17 0 8 8 3 21
-13z m359 -212 c0 -17 -18 -21 -24 -6 -3 9 0 15 9 15 8 0 15 -4 15 -9z m-190
-143 c0 -61 -2 -109 -5 -106 -9 9 -11 227 -3 222 5 -3 8 -55 8 -116z m433 32
c-3 -11 -7 -20 -9 -20 -2 0 -4 9 -4 20 0 11 4 20 9 20 5 0 7 -9 4 -20z m-286
-387 c-2 -48 -27 -58 -27 -10 0 20 6 38 13 40 6 3 13 6 14 6 0 1 0 -16 0 -36z
m-289 -23 c11 -32 10 -33 -3 -16 -8 11 -15 29 -15 40 0 25 4 19 18 -24z m366
15 c3 -9 0 -15 -8 -15 -7 0 -13 7 -13 15 0 8 4 15 8 15 4 0 9 -7 13 -15z m9
-148 c-11 -94 -21 -105 -22 -25 -1 62 2 76 13 72 10 -4 13 -17 9 -47z m-365
-92 l1 -20 -9 20 c-5 11 -8 34 -8 50 l0 30 8 -30 c4 -16 8 -39 8 -50z m532 6
c0 -20 -20 -61 -30 -61 -13 0 -13 12 0 44 9 25 30 36 30 17z m-219 -134 c-8
-8 -11 -7 -11 4 0 20 13 34 18 19 3 -7 -1 -17 -7 -23z m-261 -67 c0 -5 -2 -10
-4 -10 -3 0 -8 5 -11 10 -3 6 -1 10 4 10 6 0 11 -4 11 -10z m46 -11 c16 -17
16 -22 4 -29 -10 -7 -11 -10 -2 -10 7 0 12 -13 12 -31 0 -16 -4 -28 -9 -25 -5
3 -12 -1 -15 -10 -9 -24 -15 -14 -26 44 -14 77 0 101 36 61z m84 -9 c0 -19
-28 -10 -33 10 -4 17 -2 18 14 9 10 -5 19 -14 19 -19z m146 -25 c9 -8 14 -25
12 -37 -3 -18 -6 -16 -20 15 -19 39 -16 46 8 22z m151 -72 c-3 -10 -5 -2 -5
17 0 19 2 27 5 18 2 -10 2 -26 0 -35z m-30 -5 c-3 -7 -5 -2 -5 12 0 14 2 19 5
13 2 -7 2 -19 0 -25z m-270 0 c-3 -8 -6 -5 -6 6 -1 11 2 17 5 13 3 -3 4 -12 1
-19z m-107 -58 c0 -5 -5 -10 -11 -10 -5 0 -7 5 -4 10 3 6 8 10 11 10 2 0 4 -4
4 -10z m36 -138 c-7 -20 -18 -37 -25 -37 -26 0 -9 70 18 72 18 2 19 -1 7 -35z
m374 19 c0 -6 -4 -13 -10 -16 -5 -3 -10 1 -10 9 0 9 5 16 10 16 6 0 10 -4 10
-9z m-395 -89 c0 -18 -20 -15 -23 4 -3 10 1 15 10 12 7 -3 13 -10 13 -16z
m272 -4 c-3 -8 -6 -5 -6 6 -1 11 2 17 5 13 3 -3 4 -12 1 -19z m-271 -75 c-9
-38 -12 -42 -14 -21 -3 23 12 68 22 68 1 0 -2 -21 -8 -47z m326 -25 c-3 -39
-11 -85 -19 -102 -13 -29 -14 -28 -8 34 9 94 17 140 24 140 4 0 5 -32 3 -72z
m-225 -405 c-3 -10 -5 -4 -5 12 0 17 2 24 5 18 2 -7 2 -21 0 -30z m28 -29 c-9
-51 -28 -43 -20 9 4 23 10 47 13 52 10 16 15 -23 7 -61z m149 -70 c3 -8 2 -13
-2 -11 -4 2 -15 7 -25 10 -10 4 -16 11 -12 16 8 13 32 3 39 -15z m31 -84 c-3
-5 -10 -10 -16 -10 -5 0 -9 5 -9 10 0 6 7 10 16 10 8 0 12 -4 9 -10z m55 -29
c0 -5 16 -12 35 -15 19 -4 35 -9 35 -11 0 -17 -15 -35 -29 -34 -11 0 -12 2 -3
6 9 4 5 11 -15 23 -19 12 -32 14 -40 7 -10 -7 -13 -4 -13 12 0 12 6 21 15 21
8 0 15 -4 15 -9z"/>
<path d="M1275 3020 c-3 -5 -1 -10 4 -10 6 0 11 5 11 10 0 6 -2 10 -4 10 -3 0
-8 -4 -11 -10z"/>
<path d="M1370 3330 c-8 -5 -11 -12 -7 -16 4 -4 13 -2 19 4 15 15 7 24 -12 12z"/>
<path d="M1720 3237 c0 -20 50 -88 61 -82 5 4 9 8 9 11 0 3 -4 2 -10 -1 -5 -3
-10 0 -10 8 0 7 -9 23 -21 35 -11 12 -17 27 -14 32 3 6 1 10 -4 10 -6 0 -11
-6 -11 -13z"/>
<path d="M454 3208 l-19 -23 23 19 c21 18 27 26 19 26 -2 0 -12 -10 -23 -22z"/>
<path d="M1817 3110 c3 -11 10 -20 15 -20 5 0 6 -5 3 -10 -4 -6 4 -25 18 -43
31 -41 55 -106 42 -115 -6 -4 -10 -23 -11 -42 0 -19 -3 -91 -7 -160 -4 -81 -3
-113 3 -90 5 19 12 86 16 148 4 70 11 109 16 104 6 -6 5 -61 -2 -145 -7 -75
-10 -142 -7 -149 2 -7 8 28 12 77 4 50 13 113 21 140 12 48 11 52 -12 83 -14
17 -21 32 -15 32 5 0 17 -10 27 -22 l16 -23 -6 30 c-10 46 -27 85 -38 85 -5 0
-14 12 -21 28 -12 26 -67 112 -72 112 -2 0 -1 -9 2 -20z"/>
<path d="M1450 3076 c0 -3 11 -17 25 -32 29 -31 34 -20 6 14 -18 20 -31 28
-31 18z"/>
<path d="M202 3028 c-16 -16 -15 -33 1 -19 8 6 16 9 19 6 2 -3 5 2 5 10 0 18
-9 19 -25 3z"/>
<path d="M1527 2945 c3 -22 7 -42 9 -44 8 -9 2 45 -6 64 -7 14 -8 8 -3 -20z"/>
<path d="M169 2955 c-1 -3 -2 -8 -3 -12 -1 -5 -5 -14 -9 -20 -6 -9 -3 -11 7
-7 9 3 16 15 16 25 0 17 -8 27 -11 14z"/>
<path d="M298 2943 c6 -2 10 -8 8 -11 -2 -4 2 -13 10 -20 17 -15 18 -8 4 19
-6 10 -16 19 -23 18 -9 0 -9 -2 1 -6z"/>
<path d="M120 2929 c0 -5 5 -7 10 -4 6 3 10 8 10 11 0 2 -4 4 -10 4 -5 0 -10
-5 -10 -11z"/>
<path d="M700 2908 c0 -9 8 -22 18 -29 16 -13 16 -13 2 5 -8 11 -13 21 -12 23
2 3 1 7 -2 11 -3 3 -6 -2 -6 -10z"/>
<path d="M870 2860 c0 -19 3 -21 12 -12 9 9 9 15 0 24 -9 9 -12 7 -12 -12z"/>
<path d="M725 2840 c-3 -5 1 -10 9 -10 9 0 16 5 16 10 0 6 -4 10 -9 10 -6 0
-13 -4 -16 -10z"/>
<path d="M340 2808 c0 -4 9 -8 20 -8 14 0 18 -5 13 -17 -6 -16 -5 -16 10 -4
10 8 16 19 14 25 -4 13 -57 16 -57 4z"/>
<path d="M1711 2793 c-1 -28 8 -53 21 -53 7 0 7 4 0 13 -5 6 -12 23 -15 37 -4
22 -4 22 -6 3z"/>
<path d="M785 2740 c10 -11 20 -20 23 -20 3 0 -3 9 -13 20 -10 11 -20 20 -23
20 -3 0 3 -9 13 -20z"/>
<path d="M445 2720 c3 -5 8 -10 11 -10 2 0 4 5 4 10 0 6 -5 10 -11 10 -5 0 -7
-4 -4 -10z"/>
<path d="M470 2699 c0 -5 5 -7 10 -4 6 3 10 8 10 11 0 2 -4 4 -10 4 -5 0 -10
-5 -10 -11z"/>
<path d="M500 2682 c0 -10 54 -42 70 -42 7 0 -4 11 -24 25 -40 27 -46 29 -46
17z"/>
<path d="M600 2600 c-9 -6 -10 -10 -3 -10 6 0 15 5 18 10 8 12 4 12 -15 0z"/>
<path d="M1779 2313 c-13 -16 -12 -17 4 -4 9 7 17 15 17 17 0 8 -8 3 -21 -13z"/>
<path d="M820 2280 c0 -21 17 -46 25 -38 4 4 0 17 -9 30 -10 14 -16 17 -16 8z"/>
<path d="M1789 2253 c-13 -16 -12 -17 4 -4 9 7 17 15 17 17 0 8 -8 3 -21 -13z"/>
<path d="M1704 2184 c-18 -14 -18 -15 4 -4 12 6 22 13 22 15 0 8 -5 6 -26 -11z"/>
<path d="M793 1995 c0 -27 2 -38 4 -22 2 15 2 37 0 50 -2 12 -4 0 -4 -28z"/>
<path d="M1521 1950 c0 -8 4 -24 9 -35 5 -13 9 -14 9 -5 0 8 -4 24 -9 35 -5
13 -9 14 -9 5z"/>
<path d="M855 1560 c-3 -5 -1 -10 4 -10 6 0 11 5 11 10 0 6 -2 10 -4 10 -3 0
-8 -4 -11 -10z"/>
<path d="M855 1307 c-6 -7 -11 -21 -12 -32 -1 -20 -12 -90 -39 -246 -17 -104
-18 -127 -3 -112 5 5 12 34 15 64 4 52 28 135 45 153 10 11 6 -75 -4 -91 -5
-7 -4 -13 1 -13 5 0 15 15 22 33 6 17 18 48 26 67 7 19 16 50 19 69 3 19 10
42 15 52 7 12 6 26 -1 43 -10 21 -14 23 -32 13 -15 -9 -21 -9 -24 1 -6 15 -15
15 -28 -1z"/>
<path d="M790 845 c7 -8 17 -15 22 -15 6 0 5 7 -2 15 -7 8 -17 15 -22 15 -6 0
-5 -7 2 -15z"/>
<path d="M890 190 c-12 -7 -12 -12 -3 -21 15 -15 26 -7 21 15 -2 11 -7 13 -18
6z"/>
</g>
</svg>
