<?xml version="1.0" standalone="no"?>
<svg version="1.0" xmlns="http://www.w3.org/2000/svg"
 width="194.000000pt" height="260.000000pt" viewBox="0 0 194.000000 260.000000"
 preserveAspectRatio="xMidYMid meet">

<g transform="translate(0.000000,260.000000) scale(0.100000,-0.100000)"
fill="#FFFFFF" stroke="none">
<path d="M610 2501 c-130 -42 -145 -60 -171 -192 -27 -139 -24 -133 -55 -102
l-27 27 -34 -40 c-97 -114 -122 -249 -87 -483 42 -289 84 -451 135 -523 26
-36 20 -43 -25 -28 -46 15 -71 6 -86 -30 -10 -25 -10 -34 2 -52 13 -19 13 -25
-1 -49 -14 -26 -14 -29 4 -49 18 -20 26 -22 88 -16 53 5 68 3 65 -6 -2 -7 -29
-64 -61 -126 -48 -94 -61 -112 -75 -106 -9 4 -30 8 -47 8 -28 1 -30 -2 -33
-37 -2 -24 5 -53 19 -82 20 -41 21 -50 11 -96 -27 -114 -4 -171 83 -210 50
-23 153 -25 181 -4 10 8 22 15 27 15 4 0 7 -43 7 -96 0 -52 4 -104 10 -114 23
-43 171 -57 272 -25 53 17 60 17 95 2 90 -38 219 -29 267 20 24 24 26 32 26
125 l0 99 29 -22 c25 -18 39 -21 104 -17 81 4 111 18 151 72 30 40 26 119 -13
237 -17 53 -31 101 -31 107 0 5 16 29 35 52 19 23 35 48 35 56 0 21 -34 34
-89 34 -47 0 -53 3 -71 32 -36 58 -36 76 -1 140 36 64 35 90 -5 111 l-24 12
35 49 c42 59 67 135 95 286 11 63 35 167 51 230 41 151 37 222 -14 320 l-35
68 60 48 c71 57 81 74 69 108 -15 37 -38 46 -81 31 -20 -7 -49 -11 -64 -8 -19
4 -37 -1 -57 -16 l-29 -22 -11 28 c-18 49 -60 82 -127 103 -105 33 -199 22
-271 -29 -51 -37 -54 -34 -71 74 l-16 100 -94 2 c-69 2 -110 -3 -150 -16z
m185 -41 c3 -6 17 -67 30 -138 37 -191 32 -178 57 -156 11 11 31 40 43 65 13
25 35 53 49 62 28 19 113 44 121 36 3 -3 -2 -59 -9 -125 -24 -199 -29 -280
-18 -269 10 9 26 84 73 333 6 28 16 52 22 52 17 0 97 -32 97 -39 0 -3 -20 -33
-45 -66 -54 -71 -41 -85 21 -24 24 23 45 41 48 38 2 -2 18 -56 37 -119 18 -63
34 -116 35 -118 1 -2 16 4 33 13 30 15 31 15 31 -5 0 -12 -8 -37 -19 -58 -46
-92 -31 -115 21 -30 38 62 48 48 20 -30 -58 -161 -60 -218 -3 -90 17 39 34 69
36 66 11 -11 -114 -537 -141 -593 -70 -143 -248 -225 -486 -225 -235 0 -428
113 -478 278 -25 84 -75 354 -90 488 -12 102 -6 173 20 239 11 28 13 28 20 10
5 -11 12 -38 17 -60 7 -34 8 -28 11 48 2 64 6 87 15 84 23 -7 58 -71 83 -154
14 -46 26 -83 27 -83 1 0 0 58 -1 129 -4 139 16 309 43 360 13 25 93 71 124
71 7 0 11 -42 12 -117 l2 -118 8 80 c15 132 20 167 25 162 3 -2 9 -105 14
-228 5 -123 15 -246 22 -274 l11 -50 13 30 12 30 14 -35 c8 -19 21 -53 29 -75
l14 -40 3 42 c2 32 -5 58 -33 112 -29 55 -38 87 -45 158 -11 102 -13 327 -3
336 10 11 51 8 58 -3z m655 -300 c-41 -38 -77 -64 -79 -59 -3 9 25 96 35 107
1 2 11 -1 21 -7 15 -7 27 -5 49 9 57 37 48 18 -26 -50z m-1052 -1069 c41 -11
76 -22 79 -24 3 -3 2 -15 -2 -26 -5 -16 -15 -21 -44 -21 -21 0 -54 -3 -72 -6
l-34 -5 28 24 29 24 -36 22 c-59 37 -52 39 52 12z m895 -64 c-23 -39 -46 -45
-60 -15 -8 19 -5 24 31 42 48 25 55 18 29 -27z m-688 11 c19 -9 25 -17 21 -32
-2 -12 -8 -38 -12 -59 -4 -23 -15 -44 -28 -53 -26 -16 -134 -40 -143 -31 -10
11 110 187 127 187 5 0 21 -5 35 -12z m585 -10 c43 -51 135 -217 125 -226 -3
-4 -38 5 -78 18 -62 22 -72 28 -70 47 2 15 -7 29 -27 43 -19 14 -30 30 -30 46
0 27 0 27 32 15 13 -4 37 -11 53 -15 l30 -7 -35 22 c-19 12 -45 28 -58 36 -12
8 -20 18 -17 23 9 14 62 12 75 -2z m-118 -89 c30 -137 24 -150 -78 -153 -101
-3 -100 -4 -110 72 -12 89 -35 97 -31 11 2 -59 0 -64 -24 -76 -15 -7 -54 -13
-89 -14 -96 -2 -107 21 -80 167 l12 64 43 0 c27 0 59 -9 86 -25 54 -31 78 -31
115 -3 24 20 99 39 129 33 6 -1 17 -35 27 -76z m-484 -131 c-5 -29 -23 -96
-40 -148 -35 -110 -42 -105 -52 35 -7 101 4 137 42 140 12 1 28 7 34 13 22 22
25 12 16 -40z m603 0 c32 -18 42 -31 54 -72 8 -27 15 -61 15 -75 0 -30 -29
-111 -41 -111 -8 0 -68 182 -63 189 2 2 17 -2 34 -9 47 -19 46 -6 -1 26 -23
16 -46 39 -50 52 -11 28 2 28 52 0z m-761 -9 c0 -6 6 -9 13 -6 16 5 35 -123
43 -293 6 -114 5 -123 -9 -105 -16 19 -16 19 -23 -12 -5 -26 -12 -33 -30 -33
-23 0 -24 2 -24 89 0 50 9 132 21 190 27 135 21 171 -13 66 -23 -72 -26 -77
-33 -52 -11 40 -1 109 20 140 18 28 35 35 35 16z m1018 -1 c-7 -19 -34 -32
-54 -24 -19 7 -19 8 0 22 24 17 59 19 54 2z m-772 -46 c12 -9 27 -27 33 -40
15 -29 -5 -39 -49 -24 -46 16 -36 -1 21 -37 57 -35 96 -42 84 -13 -43 102 -40
106 99 110 88 2 107 0 112 -13 9 -22 30 -19 72 10 43 30 51 31 51 8 0 -10 3
-30 6 -45 5 -17 -1 -47 -14 -83 -12 -30 -21 -69 -21 -85 0 -15 -3 -36 -6 -45
-6 -16 -54 -45 -74 -45 -18 0 -11 26 15 50 14 13 25 30 25 38 0 12 -6 10 -23
-6 -13 -12 -29 -22 -35 -22 -19 0 -14 39 9 72 12 16 24 50 27 74 4 39 2 44
-16 44 -12 0 -24 -4 -27 -10 -3 -5 -27 -10 -53 -11 -35 0 -42 -3 -27 -9 11 -5
31 -9 45 -9 57 -2 64 -37 17 -95 l-23 -29 -95 32 c-69 23 -112 31 -162 31
l-69 0 6 38 c3 20 8 58 12 85 7 52 23 60 60 29z m650 -89 c15 -46 29 -81 32
-79 4 5 -12 107 -24 149 -3 9 0 17 6 17 6 0 25 -30 43 -67 30 -65 32 -74 32
-185 -1 -126 -9 -148 -52 -148 -18 0 -27 8 -34 30 -12 34 -29 31 -29 -6 0 -45
-45 -26 -60 27 -16 55 -12 96 16 150 25 47 26 57 21 136 -5 74 -4 83 9 73 8
-7 26 -50 40 -97z m-1042 0 c8 -19 -8 -38 -23 -29 -16 10 -13 46 3 46 8 0 17
-8 20 -17z m92 -269 c-6 -22 -9 -25 -17 -13 -8 11 -12 11 -16 2 -6 -16 -35
-17 -51 -1 -25 25 -10 135 29 224 l22 49 20 -117 c11 -65 16 -129 13 -144z
m753 63 c1 -118 1 -119 -28 -148 -33 -33 -64 -36 -118 -14 -48 20 -73 43 -73
67 0 21 4 22 29 8 14 -7 20 -4 29 14 9 20 82 56 114 56 5 0 6 -22 2 -50 -4
-31 -3 -50 4 -50 16 0 22 39 23 160 0 74 3 108 9 95 5 -11 9 -73 9 -138z
m-355 92 c21 -17 24 -24 15 -40 -19 -36 -51 -43 -114 -24 -82 23 -90 5 -14
-33 34 -17 34 -17 31 -80 -4 -76 14 -77 24 -1 4 27 11 52 16 55 15 10 88 -44
88 -65 0 -26 -53 -69 -96 -77 -45 -8 -105 14 -121 46 -7 14 -9 26 -5 28 5 1 6
40 4 87 l-4 84 38 7 39 7 -35 13 c-34 12 -33 12 36 13 58 1 76 -3 98 -20z
m155 -55 c29 -37 26 -53 -14 -70 -44 -18 -75 -18 -103 2 -28 19 -28 41 0 71
31 33 90 32 117 -3z m523 -67 c-9 -19 -11 -13 -10 33 0 53 1 54 10 22 8 -23 8
-39 0 -55z m-653 -283 c-18 -22 -47 -16 -62 12 l-14 27 -6 -33 c-7 -31 -8 -32
-49 -25 -81 12 -78 9 -78 86 0 38 2 69 4 69 2 0 21 -7 42 -16 47 -20 128 -14
152 10 16 16 17 13 20 -49 2 -41 -2 -72 -9 -81z m155 105 c12 -20 21 -27 29
-21 7 5 36 15 65 21 30 6 62 16 73 21 18 10 19 7 19 -48 0 -75 -12 -90 -75
-94 -48 -3 -51 -2 -65 29 -19 41 -29 41 -43 3 -6 -17 -16 -29 -22 -27 -12 4
-20 147 -8 147 5 0 17 -14 27 -31z"/>
<path d="M484 1632 c-66 -31 -84 -62 -84 -147 0 -62 3 -76 24 -98 39 -43 83
-60 141 -55 96 8 152 75 143 170 -11 113 -122 177 -224 130z m71 -47 c43 -42
23 -106 -37 -121 -57 -13 -104 80 -60 118 38 34 66 35 97 3z m73 -168 c4 -20
-25 -34 -40 -19 -15 15 -1 44 19 40 10 -2 19 -11 21 -21z"/>
<path d="M1120 1639 c-41 -16 -90 -70 -101 -111 -12 -45 1 -102 32 -142 65
-83 202 -73 258 18 29 47 28 129 -1 173 -40 59 -125 87 -188 62z m54 -50 c53
-42 23 -122 -46 -122 -62 0 -89 73 -43 118 30 30 54 31 89 4z m74 -172 c4 -20
-25 -34 -40 -19 -15 15 -1 44 19 40 10 -2 19 -11 21 -21z"/>
<path d="M738 1273 c-35 -4 -38 -7 -38 -35 0 -84 70 -148 160 -148 100 0 170
60 170 146 l0 44 -127 -2 c-71 -1 -145 -3 -165 -5z m236 -102 c8 -12 -23 -36
-63 -50 -64 -21 -80 -7 -39 36 22 23 91 33 102 14z"/>
</g>
</svg>
