<?xml version="1.0" standalone="no"?>
<svg version="1.0" xmlns="http://www.w3.org/2000/svg"
 width="512.000000pt" height="512.000000pt" viewBox="0 0 512.000000 512.000000"
 preserveAspectRatio="xMidYMid meet">

<g transform="translate(0.000000,512.000000) scale(0.100000,-0.100000)"
fill="#FFFFFF" stroke="none">
<path d="M1985 4895 c-65 -28 -102 -33 -152 -20 -28 6 -33 5 -33 -11 0 -11 -9
-25 -20 -32 -12 -7 -20 -8 -20 -2 0 5 -7 10 -15 10 -8 0 -15 -7 -15 -15 0 -8
5 -15 12 -15 6 0 8 -3 4 -7 -4 -5 -14 1 -22 11 -8 11 -14 14 -14 7 0 -7 -5 -9
-10 -6 -11 7 -39 -8 -79 -44 -14 -12 -31 -19 -38 -17 -8 3 -13 -2 -13 -13 0
-10 -9 -26 -19 -35 -11 -10 -17 -25 -15 -34 4 -13 3 -13 -6 1 -11 18 -13 18
-32 0 -22 -20 -58 -93 -58 -118 0 -9 -11 -51 -24 -93 -32 -103 -38 -139 -23
-146 7 -2 7 -5 2 -5 -17 -2 1 -167 29 -261 13 -47 34 -107 45 -133 12 -27 21
-61 21 -77 0 -15 7 -33 15 -40 8 -7 15 -20 15 -29 1 -9 7 -27 14 -39 12 -22
14 -23 29 -7 10 9 17 21 17 26 0 5 8 9 18 9 10 0 23 5 30 12 7 7 12 8 12 2 0
-6 -10 -16 -23 -23 -77 -41 -43 -129 48 -122 38 4 44 10 22 22 -23 13 -23 44
1 34 9 -4 27 -10 40 -13 22 -4 22 -5 6 -23 -13 -15 -14 -19 -3 -19 11 0 11 -2
-1 -10 -8 -6 -28 -10 -45 -9 -45 2 -48 0 -35 -16 35 -42 190 12 190 67 0 18
33 58 48 58 4 0 15 26 24 57 17 57 16 58 -4 80 -23 24 -62 31 -73 12 -4 -6
-14 -7 -24 -3 -9 4 -56 8 -104 9 -49 2 -91 6 -94 9 -12 12 -32 6 -61 -19 l-30
-25 -11 72 c-6 40 -19 109 -27 152 -19 92 -14 161 16 230 17 37 26 46 45 46
14 0 25 -4 25 -8 0 -9 34 -8 144 4 37 4 62 2 69 -5 6 -6 21 -11 33 -11 13 0
39 -10 60 -22 31 -18 58 -23 178 -28 77 -4 148 -10 157 -14 18 -8 16 -32 -4
-75 -9 -19 -8 -25 6 -36 10 -7 16 -19 15 -26 -2 -8 7 -15 20 -17 23 -4 31 -35
12 -47 -5 -3 -10 -17 -10 -31 0 -16 -8 -28 -25 -36 -14 -6 -25 -15 -25 -19 0
-4 -12 -10 -26 -13 -14 -4 -43 -18 -65 -31 -21 -14 -43 -25 -48 -25 -16 0 -81
-69 -81 -86 0 -9 11 -29 25 -46 28 -34 29 -43 14 -139 -11 -61 -10 -71 5 -87
21 -24 20 -44 -4 -75 -11 -14 -20 -30 -20 -36 0 -6 -4 -11 -9 -11 -5 0 -17 -7
-26 -16 -14 -15 -18 -15 -41 1 -23 15 -28 15 -40 3 -12 -12 -11 -17 8 -35 13
-11 37 -25 53 -30 24 -8 29 -15 27 -35 -4 -32 22 -56 43 -38 16 13 65 6 65 -9
0 -18 -51 -41 -90 -41 -22 0 -60 -6 -86 -12 -41 -11 -47 -11 -55 5 -12 21 -55
22 -63 1 -10 -27 -7 -51 10 -65 13 -10 17 -10 24 2 7 11 44 15 157 20 81 3
150 4 152 3 7 -6 -21 -34 -34 -34 -8 0 -15 -5 -17 -11 -2 -5 -39 -15 -83 -21
-44 -6 -81 -12 -83 -13 -2 -2 1 -12 7 -23 14 -26 52 -39 134 -47 37 -3 81 -8
97 -12 28 -5 29 -7 13 -19 -10 -7 -14 -14 -9 -14 5 0 -1 -11 -14 -25 -24 -26
-54 -33 -65 -15 -9 15 -35 12 -35 -3 0 -16 -67 -47 -103 -47 -14 0 -41 9 -60
20 -41 25 -117 95 -117 110 0 5 -5 10 -10 10 -17 0 3 -30 62 -91 206 -215 208
-217 208 -259 0 -21 5 -42 11 -45 5 -4 33 5 62 19 42 20 70 25 146 28 69 2 95
0 99 -10 2 -6 16 -12 32 -12 17 0 47 -14 73 -34 25 -19 48 -32 51 -29 3 4 6
-5 6 -20 0 -38 -31 -104 -101 -214 -109 -171 -151 -249 -390 -721 -87 -172
-168 -326 -180 -343 -12 -17 -26 -52 -30 -78 -10 -51 -130 -423 -140 -431 -3
-3 -12 -30 -19 -60 -7 -30 -18 -71 -26 -90 -7 -19 -27 -87 -44 -150 -17 -63
-36 -127 -42 -142 -11 -29 -28 -38 -28 -15 -2 64 -15 159 -27 192 -8 22 -17
83 -20 135 -4 69 -10 104 -25 129 -11 19 -37 82 -60 140 l-40 106 11 90 c5 49
7 110 4 135 -4 39 1 61 36 142 23 54 41 103 41 110 0 7 18 49 40 93 28 56 40
92 40 122 0 32 11 63 43 121 24 43 56 113 72 156 16 43 43 103 62 133 l33 56
-28 -6 c-26 -5 -29 -2 -47 44 -11 27 -24 48 -30 46 -5 -2 -31 -46 -57 -98 -79
-157 -228 -469 -228 -477 0 -5 -25 -64 -56 -133 -30 -68 -62 -137 -69 -154 -7
-16 -17 -41 -20 -54 -5 -16 -10 -20 -15 -11 -5 8 -10 9 -14 2 -3 -6 -2 -14 4
-17 8 -5 8 -11 0 -20 -7 -8 -9 -18 -6 -23 3 -5 -3 -18 -14 -30 -19 -21 -19
-21 5 -64 14 -24 25 -51 25 -62 0 -10 14 -66 31 -125 31 -106 57 -210 66 -266
2 -16 8 -39 13 -50 9 -20 17 -56 26 -110 3 -16 10 -39 15 -50 21 -44 46 -154
38 -167 -5 -7 -9 -40 -9 -73 0 -38 -3 -55 -9 -46 -5 7 -14 10 -20 7 -7 -5 -11
2 -11 19 0 15 -4 24 -10 20 -6 -3 -10 3 -10 14 0 24 -16 36 -24 19 -4 -9 -8
-9 -11 -2 -3 6 -18 9 -33 7 -49 -6 -56 7 -34 68 17 51 18 65 5 238 -7 101 -16
187 -19 190 -4 3 -4 -79 0 -184 5 -152 3 -199 -8 -237 -8 -26 -18 -86 -22
-133 l-7 -85 261 0 c224 0 263 2 276 16 15 14 16 14 16 0 0 -15 107 -16 1111
-16 1111 0 1112 0 1149 21 21 12 47 38 59 59 21 37 21 42 21 781 0 602 -3 754
-14 803 -8 34 -19 88 -26 121 -31 155 -128 284 -267 354 -44 22 -97 51 -118
65 -20 14 -60 34 -88 45 -113 44 -165 69 -236 115 -41 26 -81 50 -90 54 -9 3
-47 27 -86 53 -38 25 -84 54 -101 62 -39 20 -101 93 -144 169 -17 32 -46 70
-63 84 -18 15 -40 40 -50 56 -9 16 -33 44 -52 63 -53 54 -58 69 -51 159 12
146 17 167 40 176 64 24 115 109 146 242 34 144 14 226 -56 238 -26 5 -29 9
-27 40 17 390 17 402 -6 490 -22 90 -79 189 -113 198 -10 2 -18 14 -18 26 0
32 -70 92 -133 113 -10 3 -25 19 -33 35 -14 27 -80 66 -120 72 -7 1 -17 6 -21
11 -4 4 -1 5 7 0 11 -6 12 -5 5 3 -8 8 -21 9 -48 1 -21 -6 -53 -7 -70 -3 -18
4 -45 8 -62 10 -16 1 -41 5 -55 8 -16 4 -47 -3 -85 -19z m-192 -1222 c-7 -2
-19 -2 -25 0 -7 3 -2 5 12 5 14 0 19 -2 13 -5z m482 -51 c22 -4 59 -17 82 -27
38 -16 43 -23 48 -60 5 -31 1 -54 -19 -99 -14 -32 -26 -65 -26 -72 0 -22 -35
-35 -64 -24 -14 5 -26 14 -26 19 0 5 -18 35 -39 67 -22 33 -44 82 -50 109 -5
28 -13 62 -17 78 -6 27 -6 27 32 23 22 -3 57 -9 79 -14z m95 -413 c0 -3 -7 -6
-15 -6 -17 0 -17 0 -9 22 5 13 8 14 15 3 5 -7 9 -16 9 -19z m70 -434 c0 -12
-36 -45 -49 -45 -10 0 -6 8 10 24 23 23 39 32 39 21z m520 -653 c21 -12 44
-22 51 -22 7 0 21 -8 31 -17 11 -10 37 -17 61 -18 23 0 51 -6 62 -12 24 -13
55 4 55 31 0 11 9 16 30 16 17 0 30 -3 30 -8 0 -4 -20 -40 -45 -80 -25 -41
-49 -88 -52 -105 -3 -18 -12 -41 -20 -52 -7 -11 -13 -31 -13 -45 0 -14 -9 -43
-19 -65 -18 -38 -19 -38 -20 -12 -1 31 -8 34 -27 10 -12 -17 -13 -16 -14 4 0
28 -33 48 -49 29 -6 -7 -23 -11 -40 -8 -25 3 -29 1 -25 -15 4 -14 -3 -25 -20
-36 -28 -19 -56 -13 -56 10 0 21 -36 -25 -42 -52 -3 -16 -12 -20 -43 -21 -84
-2 -90 -4 -102 -31 -7 -15 -13 -31 -13 -35 0 -15 -39 -47 -64 -54 -16 -4 -24
-13 -25 -27 -1 -51 -14 -97 -32 -113 -10 -9 -19 -27 -19 -38 0 -28 -11 -42
-37 -50 -13 -4 -22 -10 -21 -14 5 -16 -36 -120 -59 -151 -21 -27 -23 -35 -12
-42 19 -12 -77 -12 -100 0 -9 5 -37 12 -62 15 -24 2 -45 5 -46 5 -2 1 -3 8 -3
17 0 11 -5 14 -16 10 -9 -3 -20 -6 -25 -6 -6 0 -8 -4 -5 -9 3 -5 -5 -8 -17 -7
-30 1 -26 24 15 83 15 23 28 48 28 55 0 10 3 9 10 -2 7 -12 12 -8 21 17 6 18
15 30 20 27 5 -3 9 2 9 10 0 18 2 19 52 7 33 -8 38 -6 43 13 13 44 50 126 58
126 5 0 5 -6 2 -12 -4 -7 2 -2 14 12 13 17 18 33 14 50 -8 36 -12 40 -31 33
-16 -6 -16 -6 0 10 9 9 26 17 37 17 14 0 27 13 41 40 11 21 29 44 40 50 14 7
20 21 20 44 0 19 7 39 15 46 14 12 14 48 -1 84 -5 14 -4 17 4 12 8 -5 12 0 12
13 0 12 14 34 30 49 17 16 30 35 30 43 0 12 2 12 9 0 5 -8 7 -21 4 -28 -4 -10
8 -8 41 9 44 21 47 25 42 55 -3 18 0 35 5 38 5 4 9 15 9 25 0 22 23 31 68 25
40 -5 62 2 62 20 0 6 9 20 20 30 10 9 19 20 18 24 0 3 0 13 1 21 2 11 5 10 12
-5 5 -11 27 -30 49 -43z m-551 -140 l38 -28 -24 -37 c-21 -34 -26 -37 -41 -25
-20 15 -52 49 -52 55 0 8 31 63 35 63 3 0 22 -12 44 -28z m54 -128 c-10 -21
-24 -46 -32 -56 -16 -18 -36 -14 -24 5 4 7 0 6 -10 -2 -11 -9 -17 -28 -17 -56
0 -43 -7 -55 -96 -150 -17 -19 -30 -44 -30 -57 1 -13 -4 -22 -11 -20 -8 1 -13
-8 -13 -22 0 -14 -4 -27 -9 -31 -12 -7 -41 -64 -41 -81 0 -7 -4 -15 -9 -18 -5
-4 -7 4 -4 16 3 15 -4 9 -21 -17 -17 -27 -25 -34 -26 -22 0 14 -5 17 -20 12
-13 -4 -20 -2 -20 6 0 14 48 80 67 92 7 4 13 15 13 23 0 8 8 33 19 57 10 23
23 54 29 70 7 15 18 27 26 27 9 0 20 16 26 40 6 21 17 43 24 47 7 4 21 22 30
40 9 18 23 36 32 41 11 6 17 23 17 51 0 38 1 40 17 26 21 -19 57 -19 76 0 9 9
11 15 4 15 -6 0 -8 5 -4 11 4 7 10 7 16 1 6 -6 2 -24 -9 -48z m548 -227 c-13
-13 -26 -3 -16 12 3 6 11 8 17 5 6 -4 6 -10 -1 -17z m89 -48 c0 -5 -7 -9 -15
-9 -15 0 -20 12 -9 23 8 8 24 -1 24 -14z m-807 -204 c-5 -14 -7 -13 -18 2 -10
13 -10 21 -2 35 11 17 12 17 19 -2 4 -11 5 -27 1 -35z m-189 -107 c-4 -13 -7
-27 -6 -31 1 -5 -2 -6 -8 -2 -5 3 -10 -2 -10 -13 0 -10 -9 -28 -20 -40 -11
-12 -20 -25 -20 -30 0 -12 -30 -20 -47 -15 -19 7 -16 30 8 73 25 44 67 69 80
48 6 -9 9 -7 9 8 0 21 10 38 18 30 2 -3 0 -15 -4 -28z m986 -287 c0 -24 -1
-24 -15 -5 -8 10 -14 30 -14 44 0 24 0 24 14 6 8 -11 15 -31 15 -45z m-993 13
c2 -6 -3 -14 -11 -17 -11 -4 -13 -1 -9 11 6 15 5 15 -10 3 -9 -7 -15 -17 -12
-21 3 -4 -7 -7 -20 -7 -31 0 -39 11 -20 27 10 9 15 9 15 1 0 -6 -5 -11 -12
-11 -6 0 -8 -3 -5 -6 8 -8 38 16 33 25 -3 4 7 7 21 6 15 0 28 -5 30 -11z m39
-40 c15 6 16 4 7 -5 -14 -14 -43 -5 -43 13 0 10 3 9 9 -1 6 -9 16 -11 27 -7z
m77 -11 c-7 -2 -19 -2 -25 0 -7 3 -2 5 12 5 14 0 19 -2 13 -5z m1007 -33 c0
-5 -4 -10 -9 -10 -6 0 -13 5 -16 10 -3 6 1 10 9 10 9 0 16 -4 16 -10z m4 -182
c22 -43 20 -58 -3 -28 -11 13 -17 28 -15 32 3 4 0 8 -5 8 -6 0 -11 5 -11 10 0
21 19 9 34 -22z m-1282 -298 c-2 -17 -12 -32 -23 -35 -10 -4 -43 -30 -72 -60
-51 -50 -91 -71 -96 -52 -2 5 16 35 39 68 29 42 56 67 89 84 62 31 68 30 63
-5z m-202 -177 c0 -6 -27 -33 -33 -33 -3 0 -4 8 -2 18 2 9 4 20 4 24 1 8 31
-1 31 -9z m-485 -3 c-3 -5 -12 -10 -18 -10 -7 0 -6 4 3 10 19 12 23 12 15 0z
m32 -12 c-3 -8 -6 -5 -6 6 -1 11 2 17 5 13 3 -3 4 -12 1 -19z"/>
<path d="M3035 1840 c-3 -5 -1 -10 4 -10 6 0 11 5 11 10 0 6 -2 10 -4 10 -3 0
-8 -4 -11 -10z"/>
<path d="M2277 1218 c-8 -28 -4 -32 22 -23 25 8 28 30 5 39 -22 8 -21 9 -27
-16z"/>
<path d="M1480 3732 c0 -5 9 -12 21 -15 13 -3 19 -1 16 6 -5 15 -37 22 -37 9z"/>
<path d="M1906 2487 c-11 -34 -32 -101 -48 -149 l-29 -87 19 -43 c21 -47 39
-110 51 -176 7 -39 5 -45 -28 -85 -19 -23 -40 -45 -46 -49 -6 -5 -5 -8 3 -8 6
0 12 -10 12 -22 0 -13 5 -30 10 -38 8 -13 14 -12 46 5 69 37 142 144 130 191
-6 22 -36 35 -36 16 0 -5 -16 -16 -35 -25 l-35 -17 0 51 c0 36 6 58 22 80 l23
30 -21 37 c-27 49 -34 208 -10 244 15 23 13 93 -3 102 -3 2 -15 -24 -25 -57z"/>
<path d="M1535 2414 c-33 -25 -90 -65 -126 -89 -99 -65 -163 -156 -178 -250
-9 -61 -6 -279 5 -375 9 -75 12 -82 21 -59 6 14 12 84 12 156 2 141 28 305 60
377 26 58 76 107 111 108 19 1 27 5 23 14 -3 9 2 14 16 14 12 0 21 -5 21 -10
0 -6 17 -9 38 -7 l37 2 1 50 c1 28 7 65 12 83 6 17 10 32 9 32 -1 0 -29 -21
-62 -46z"/>
<path d="M1736 1843 c-14 -20 -22 -41 -19 -46 3 -5 10 -2 15 7 5 9 15 16 23
16 13 0 45 37 45 52 0 5 -9 8 -20 8 -11 0 -30 -15 -44 -37z"/>
<path d="M1181 1444 c-6 -15 -9 -29 -7 -32 3 -2 10 8 16 23 14 36 7 43 -9 9z"/>
<path d="M1142 1025 c0 -16 2 -22 5 -12 2 9 2 23 0 30 -3 6 -5 -1 -5 -18z"/>
<path d="M1153 920 c0 -25 2 -35 4 -22 2 12 2 32 0 45 -2 12 -4 2 -4 -23z"/>
<path d="M1642 900 c0 -14 2 -19 5 -12 2 6 2 18 0 25 -3 6 -5 1 -5 -13z"/>
</g>
</svg>
