<?xml version="1.0" standalone="no"?>
<svg version="1.0" xmlns="http://www.w3.org/2000/svg"
 width="500.000000pt" height="500.000000pt" viewBox="0 0 500.000000 500.000000"
 preserveAspectRatio="xMidYMid meet">

<g transform="translate(0.000000,500.000000) scale(0.100000,-0.100000)"
fill="#FFFFFF" stroke="none">
<path d="M2314 4419 c-233 -22 -448 -109 -687 -277 -130 -91 -186 -122 -257
-144 -71 -21 -699 -18 -960 5 -214 19 -241 17 -282 -20 -23 -21 -23 -80 0
-114 24 -37 551 -584 616 -641 87 -77 196 -151 273 -186 l72 -33 5 -57 c17
-169 30 -250 50 -327 l23 -85 -61 -32 c-86 -45 -212 -173 -258 -263 -108 -208
-125 -484 -44 -685 l24 -58 -23 -22 c-12 -11 -35 -44 -51 -73 -23 -43 -29 -67
-32 -138 -5 -101 8 -150 72 -274 91 -177 252 -284 483 -320 22 -4 49 -15 59
-26 24 -27 77 -58 116 -69 41 -12 97 2 136 35 l29 24 889 21 c686 17 901 25
941 36 36 10 68 29 105 63 38 35 81 61 144 86 348 144 572 295 644 435 32 61
38 167 15 246 -20 73 -97 221 -153 296 l-42 57 11 108 c25 264 -42 455 -221
633 l-95 96 12 39 c18 60 15 122 -8 215 -12 47 -17 86 -12 87 5 2 45 24 88 48
186 106 343 253 564 530 80 99 195 230 256 290 123 122 135 138 135 189 0 72
-42 116 -113 116 -18 0 -159 -22 -313 -50 -439 -78 -613 -102 -754 -102 -149
-1 -192 11 -404 109 -329 153 -516 210 -752 233 -119 11 -122 11 -240 -1z
m347 -95 c179 -31 317 -79 669 -237 80 -35 175 -72 211 -81 133 -33 329 -14
888 85 184 32 345 56 358 53 45 -12 27 -44 -86 -155 -60 -59 -180 -197 -267
-306 -290 -362 -476 -519 -656 -552 -95 -17 -153 30 -184 149 -19 73 -13 145
18 229 40 106 195 233 370 302 40 15 68 28 62 29 -34 1 -175 -45 -235 -76 -66
-35 -187 -140 -222 -193 l-17 -25 -26 25 c-37 35 -64 92 -64 138 0 60 24 73
181 100 286 48 638 135 842 208 54 20 96 37 95 38 -2 2 -77 -14 -168 -36 -431
-102 -744 -158 -928 -166 l-134 -6 7 -35 c4 -20 40 -103 81 -186 85 -173 104
-241 104 -393 l0 -101 -40 -51 c-78 -99 -167 -147 -334 -182 -247 -51 -958
-91 -1241 -69 -265 20 -420 72 -508 170 -63 70 -82 132 -82 265 0 119 18 197
76 324 37 81 142 238 208 313 90 100 54 86 -68 -26 -116 -106 -129 -110 -359
-103 -134 4 -244 14 -387 36 -397 60 -469 71 -472 67 -7 -6 212 -66 332 -91
192 -39 336 -55 553 -62 111 -3 202 -10 202 -15 0 -24 -45 -91 -73 -109 -45
-28 -97 -21 -318 46 -100 30 -185 55 -188 55 -18 0 79 -49 203 -101 160 -69
201 -96 224 -148 19 -44 20 -170 3 -293 -12 -83 -14 -87 -40 -93 -45 -10 -151
12 -216 44 -33 17 -96 59 -140 95 -138 110 -715 710 -699 726 5 5 76 3 169 -5
420 -37 842 -41 999 -9 93 18 171 57 296 148 114 82 296 180 400 216 175 60
407 77 601 44z m1110 -1281 c30 -70 52 -181 45 -232 -12 -86 -25 -96 -361
-275 -121 -65 -260 -144 -309 -177 l-89 -59 -66 33 c-60 29 -74 32 -161 32
-84 0 -102 -3 -152 -28 -74 -36 -157 -113 -218 -199 l-47 -67 -51 79 c-55 83
-112 139 -172 168 -56 26 -135 137 -154 214 -10 41 17 93 62 123 22 14 93 50
158 79 l119 53 155 7 c615 28 815 72 1070 240 59 39 95 56 118 56 30 0 35 -5
53 -47z m-2395 -114 c238 -97 407 -134 668 -146 l149 -6 -49 -25 c-27 -13 -66
-35 -87 -49 l-37 -26 -107 12 c-59 7 -155 25 -215 40 -65 17 -107 24 -105 17
5 -18 189 -75 297 -93 85 -14 100 -19 94 -32 -26 -59 -14 -124 40 -214 19 -31
31 -58 28 -61 -3 -3 -17 -6 -32 -6 -15 0 -59 -16 -98 -36 l-71 -35 -73 49
c-130 87 -263 145 -439 191 l-104 27 -13 39 c-30 88 -53 216 -59 328 l-6 119
39 -18 c21 -9 103 -43 180 -75z m2518 -339 c131 -125 194 -249 216 -422 9 -74
7 -117 -10 -270 -33 -285 -70 -428 -129 -498 l-30 -35 -1 63 c0 48 -4 66 -20
82 -32 32 -68 23 -126 -32 l-31 -29 5 78 c4 89 -6 125 -44 149 -26 18 -57 15
-116 -11 -16 -6 -18 0 -18 71 0 74 2 81 33 121 89 111 121 271 77 387 -41 109
-108 156 -260 183 l-44 8 149 79 c83 44 175 95 205 113 30 18 58 33 62 33 5 0
41 -32 82 -70z m-2596 -166 c24 -14 64 -46 90 -71 l47 -45 -65 -22 c-139 -45
-223 -122 -290 -260 -47 -100 -70 -199 -77 -336 -5 -99 12 -264 32 -314 7 -16
5 -17 -16 -11 -57 18 -143 156 -180 290 -31 109 -31 285 -1 398 47 173 157
325 287 394 57 30 61 31 95 17 19 -8 54 -26 78 -40z m239 -46 c77 -32 227
-118 255 -146 16 -16 16 -18 -2 -40 l-19 -22 -61 39 c-34 22 -89 49 -123 61
-52 17 -71 31 -122 87 -56 63 -58 66 -30 59 17 -4 63 -21 102 -38z m1956 -24
c51 -9 112 -55 138 -106 84 -164 -38 -420 -223 -469 -53 -14 -98 -2 -98 27 0
8 27 44 60 78 89 93 83 103 -54 85 -85 -11 -97 -11 -120 5 -16 10 -26 26 -26
41 0 25 19 43 120 113 78 54 75 72 -16 88 -79 13 -114 28 -114 49 0 37 87 82
183 94 61 9 75 8 150 -5z m-562 -61 c78 -25 152 -101 175 -178 33 -117 -3
-215 -153 -415 -137 -183 -441 -530 -463 -530 -10 0 -310 242 -433 348 -232
201 -308 337 -277 496 22 112 77 188 166 232 46 22 64 26 123 22 59 -3 76 -9
124 -41 66 -43 144 -147 179 -238 13 -32 26 -59 30 -59 4 0 17 18 28 41 134
263 318 381 501 322z m-1321 -99 c77 -36 130 -79 130 -104 0 -25 -19 -30 -110
-30 -43 0 -82 -4 -85 -10 -10 -16 20 -62 90 -138 41 -44 65 -78 63 -89 -5 -29
-83 -28 -172 1 -68 23 -116 32 -116 22 0 -14 27 -78 47 -108 44 -71 19 -101
-64 -79 -62 17 -127 81 -170 169 -35 70 -38 83 -38 161 0 76 3 92 27 133 48
81 111 109 243 105 76 -2 100 -7 155 -33z m1648 -294 l33 0 -20 -26 c-12 -15
-21 -30 -21 -35 0 -11 -160 -246 -231 -339 -111 -146 -230 -243 -352 -289
l-59 -21 34 38 c18 21 74 86 124 143 187 215 366 458 381 517 5 22 10 24 42
18 20 -3 51 -6 69 -6z m-2042 -181 c122 -165 118 -159 106 -171 -17 -17 -98 6
-142 41 -49 38 -83 106 -77 154 6 41 24 70 41 64 5 -2 38 -41 72 -88z m2994
-21 c57 -94 100 -216 100 -286 0 -156 -184 -314 -543 -468 -43 -19 -81 -34
-84 -34 -2 0 8 17 25 38 54 69 129 187 165 259 29 56 44 76 72 89 34 16 61 43
97 94 l17 25 -6 -25 c-11 -49 -64 -155 -104 -207 -51 -68 -35 -69 25 -2 79 87
141 246 135 345 -1 16 8 78 20 137 11 59 21 110 21 113 0 14 14 -5 60 -78z
m-2485 28 c28 -13 73 -46 100 -75 86 -89 244 -229 398 -352 145 -116 148 -119
112 -119 -56 0 -183 29 -265 61 -71 27 -159 79 -242 142 -67 52 -50 9 19 -46
168 -136 389 -206 646 -207 29 0 85 -11 126 -24 62 -20 71 -25 55 -34 -10 -5
-120 -53 -244 -105 -124 -52 -273 -117 -331 -144 l-105 -50 -153 -6 -152 -6 8
47 c22 127 1 280 -59 431 -33 85 -99 326 -106 389 -5 51 15 87 61 107 46 20
75 18 132 -9z m1564 -62 c28 -36 26 -66 -8 -138 -39 -85 -88 -238 -101 -316
-20 -128 -8 -327 24 -401 8 -18 -7 -18 -839 -34 l-270 -6 38 21 c21 12 136 61
255 109 363 148 513 231 637 356 72 71 140 181 133 213 -3 12 -11 3 -26 -28
-24 -48 -107 -160 -120 -160 -4 0 -23 13 -42 28 l-33 29 89 114 c49 64 110
143 136 177 56 72 91 82 127 36z m181 -53 c5 -11 10 -70 10 -131 0 -89 3 -112
15 -116 29 -11 42 15 47 91 3 46 11 84 22 100 33 51 113 83 133 53 4 -7 8 -69
8 -137 0 -108 2 -125 18 -135 15 -9 22 -6 44 19 69 82 83 95 99 95 14 0 16 -7
11 -52 -11 -93 -117 -284 -257 -468 -74 -96 -135 -155 -182 -175 -47 -19 -62
-19 -104 1 -141 67 -137 449 7 751 52 110 103 151 129 104z m-2245 -117 c48
-22 66 -56 77 -143 10 -84 19 -101 46 -85 15 10 17 26 13 123 -3 95 -1 112 13
117 26 10 60 -20 109 -93 51 -78 66 -110 112 -245 47 -138 60 -229 46 -313
-22 -124 -86 -215 -150 -215 -49 0 -87 25 -158 106 -34 38 -99 112 -146 164
-46 52 -100 121 -120 152 -35 53 -87 188 -87 223 0 31 31 28 85 -10 63 -43 91
-42 81 3 -3 15 -9 65 -12 112 -6 73 -4 88 10 103 22 21 39 21 81 1z m-343 -82
c9 -15 25 -36 36 -45 17 -16 19 -24 10 -53 -27 -100 49 -249 241 -474 45 -52
78 -96 73 -98 -17 -5 -174 57 -223 89 -98 62 -193 199 -228 324 -25 92 -5 211
46 267 21 24 26 23 45 -10z"/>
<path d="M2052 4223 c-42 -20 -37 -25 12 -12 55 15 101 3 147 -38 43 -39 50
-36 19 7 -21 29 -85 60 -123 60 -12 0 -37 -8 -55 -17z"/>
<path d="M2758 4185 c-35 -20 -36 -28 -2 -15 51 20 99 12 154 -25 43 -29 50
-31 38 -13 -39 59 -133 85 -190 53z"/>
<path d="M2403 4050 c-18 -11 -33 -21 -33 -23 0 -2 23 2 51 9 28 7 65 11 82 7
42 -7 112 -48 132 -75 22 -32 19 -9 -4 28 -40 66 -162 95 -228 54z"/>
<path d="M1895 4008 c-16 -6 -48 -24 -70 -41 -22 -16 -31 -26 -20 -23 168 60
298 36 405 -74 28 -28 50 -49 50 -46 0 42 -77 129 -144 163 -58 30 -170 40
-221 21z"/>
<path d="M2869 3989 c-81 -12 -162 -67 -196 -133 l-15 -29 44 36 c24 20 70 48
102 63 52 23 67 26 140 22 62 -4 93 -11 133 -31 67 -34 73 -34 39 2 -53 56
-155 84 -247 70z"/>
<path d="M2840 3891 c-155 -51 -249 -201 -250 -398 l0 -62 45 -27 c132 -77
368 -91 544 -33 46 16 77 35 114 70 50 48 50 48 44 101 -13 125 -110 257 -235
319 -57 28 -79 33 -152 36 -47 1 -96 -1 -110 -6z m233 -73 c52 -27 63 -88 23
-134 -50 -59 -146 -22 -146 56 0 69 64 110 123 78z m192 -267 c8 -26 -9 -66
-37 -85 -25 -18 -58 -21 -58 -6 0 6 7 10 15 10 25 0 55 38 55 70 0 33 15 40
25 11z"/>
<path d="M1845 3852 c-160 -55 -278 -198 -292 -351 l-6 -59 45 -45 c78 -78
204 -112 383 -104 122 5 215 29 279 73 l39 27 -7 82 c-11 154 -64 273 -149
335 -80 59 -196 75 -292 42z m56 -91 c41 -41 40 -90 -2 -125 -33 -28 -59 -32
-92 -14 -34 17 -46 39 -47 80 0 28 7 42 31 62 40 34 74 33 110 -3z m-248 -281
c-7 -25 19 -66 47 -75 11 -3 20 -11 20 -16 0 -15 -41 0 -67 24 -26 24 -33 87
-9 87 9 0 12 -7 9 -20z"/>
<path d="M2380 3485 c0 -12 14 -15 70 -15 56 0 70 3 70 15 0 12 -14 15 -70 15
-56 0 -70 -3 -70 -15z"/>
<path d="M2423 3425 c-18 -8 -38 -25 -44 -39 -33 -72 106 -125 170 -64 38 34
22 89 -30 107 -41 14 -57 13 -96 -4z m113 -26 c8 -6 14 -22 14 -36 0 -18 -9
-28 -35 -39 -57 -24 -125 9 -111 54 13 39 95 52 132 21z"/>
<path d="M2110 3185 c0 -15 71 -103 123 -152 74 -70 127 -95 212 -101 90 -5
162 21 247 89 58 46 162 158 154 166 -2 2 -59 -2 -127 -8 -119 -11 -500 -6
-576 7 -18 4 -33 3 -33 -1z m448 -109 c43 -22 48 -45 17 -75 -23 -24 -33 -26
-109 -26 -76 0 -87 3 -110 24 -30 28 -31 31 -13 54 32 45 149 57 215 23z"/>
</g>
</svg>
